<svg width="81" height="31" viewBox="0 0 81 31" fill="none" xmlns="http://www.w3.org/2000/svg">
<path d="M0 20.6667C0 9.25278 9.25278 0 20.6667 0H70.6667C76.3736 0 81 4.62639 81 10.3333V10.3333C81 21.7472 71.7472 31 60.3333 31H10.3333C4.62639 31 0 26.3736 0 20.6667V20.6667Z" fill="#94D1BE"/>
<path d="M25.424 17.132L25.832 19.388L18.968 20.54L16.904 25.076L14.84 24.164L22.832 6.692L24.896 6.668L32.192 22.004L30.152 22.988L23.864 9.836L20.12 18.044L25.424 17.132ZM34.4712 23.42L35.4312 13.412L36.8472 12.428L42.0793 13.844L47.1432 12.428L48.5833 13.484L49.0873 23.468L46.8312 23.588L46.3752 15.02L43.0872 15.908L43.1353 23.492L40.9033 23.54L40.8313 15.884L37.5672 14.972L36.7272 23.612L34.4712 23.42ZM52.3269 10.436L54.5109 9.836L55.2309 12.524L53.0469 13.124L52.3269 10.436ZM51.7269 24.044L52.9029 14.516L55.1589 14.78L53.9829 24.308L51.7269 24.044ZM57.8788 11.732L60.1348 11.66L60.2068 14.612L65.6788 12.02L66.6388 14.108L60.2788 17.084L60.5188 24.332L58.2388 24.38L57.8788 11.732Z" fill="white"/>
</svg>
