<svg width="81" height="31" viewBox="0 0 81 31" fill="none" xmlns="http://www.w3.org/2000/svg">
<path d="M0 20.6667C0 9.25278 9.25278 0 20.6667 0H70.6667C76.3736 0 81 4.62639 81 10.3333V10.3333C81 21.7472 71.7472 31 60.3333 31H10.3333C4.62639 31 0 26.3736 0 20.6667V20.6667Z" fill="#F21B3F"/>
<path d="M20.6 20.412H15.728L14.852 24H10.736L15.824 7.368H20.6L25.688 24H21.476L20.6 20.412ZM16.352 17.556H19.952L18.152 10.2L16.352 17.556ZM36.7306 10.836C37.6346 10.836 38.3026 11.132 38.7346 11.724C39.1746 12.308 39.3946 13.256 39.3946 14.568V24H36.1426V15C36.1426 14.552 36.0986 14.236 36.0106 14.052C35.9306 13.868 35.7626 13.776 35.5066 13.776C35.3066 13.776 35.0986 13.836 34.8826 13.956C34.6746 14.068 34.4426 14.284 34.1866 14.604V24H31.5226V15C31.5226 14.552 31.4786 14.236 31.3906 14.052C31.3106 13.868 31.1426 13.776 30.8866 13.776C30.6866 13.776 30.4786 13.836 30.2626 13.956C30.0546 14.068 29.8226 14.284 29.5666 14.604V24H26.2666V11.256H29.0506L29.3026 12.492C29.7026 11.948 30.1066 11.536 30.5146 11.256C30.9226 10.976 31.4066 10.836 31.9666 10.836C32.4466 10.836 32.8546 10.96 33.1906 11.208C33.5346 11.448 33.7786 11.828 33.9226 12.348C34.3066 11.9 34.7306 11.536 35.1946 11.256C35.6586 10.976 36.1706 10.836 36.7306 10.836ZM47.4373 4.584C48.0932 4.584 48.6292 4.788 49.0453 5.196C49.4613 5.604 49.6693 6.112 49.6693 6.72C49.6693 7.328 49.4613 7.84 49.0453 8.256C48.6292 8.664 48.0932 8.868 47.4373 8.868C46.7733 8.868 46.2292 8.664 45.8052 8.256C45.3892 7.84 45.1812 7.328 45.1812 6.72C45.1812 6.112 45.3892 5.604 45.8052 5.196C46.2292 4.788 46.7733 4.584 47.4373 4.584ZM49.7292 11.256V21.408H52.9692V24H42.3252V21.408H45.9372V13.848H42.4452V11.256H49.7292ZM56.6919 24V21.456H58.3719V13.776H56.6919V11.256H61.2639L61.9599 14.124C62.4159 13.028 62.9959 12.212 63.6999 11.676C64.4119 11.14 65.2799 10.872 66.3039 10.872C66.7359 10.872 67.1199 10.908 67.4559 10.98C67.7919 11.044 68.1079 11.136 68.4039 11.256L67.6959 16.584H65.3199V14.232C64.5999 14.36 63.9679 14.752 63.4239 15.408C62.8799 16.056 62.4599 16.856 62.1639 17.808V21.456H64.6839V24H56.6919Z" fill="white"/>
</svg>
