<svg width="81" height="31" viewBox="0 0 81 31" fill="none" xmlns="http://www.w3.org/2000/svg">
<path d="M0 20.6667C0 9.25278 9.25278 0 20.6667 0H70.6667C76.3736 0 81 4.62639 81 10.3333V10.3333C81 21.7472 71.7472 31 60.3333 31H10.3333C4.62639 31 0 26.3736 0 20.6667V20.6667Z" fill="#EAD637"/>
<path d="M24.952 6.888L29.536 24H25.576L24.616 19.848H20.944L19.96 24H16.072L20.56 7.296L24.952 6.888ZM22.72 11.208L21.472 16.992H24.112L23.008 11.208H22.72ZM34.0806 12.504C34.9126 11.448 36.0326 10.92 37.4406 10.92C38.8486 10.92 39.8486 11.44 40.4406 12.48C41.2886 11.44 42.4406 10.92 43.8966 10.92C46.3606 10.92 47.5926 12.448 47.5926 15.504V24H43.8966V15.336C43.8966 14.296 43.4726 13.776 42.6246 13.776C42.0166 13.776 41.5286 14.008 41.1606 14.472V24H37.4886V15.336C37.4886 14.296 37.0566 13.776 36.1926 13.776C35.6166 13.776 35.1286 14.008 34.7286 14.472V24H31.0566V14.976L30.7926 11.4L33.6486 11.04L33.9846 12.504H34.0806ZM53.7655 24H50.0935V11.424L53.7655 11.04V24ZM51.7975 10.344C50.4695 10.344 49.8055 9.6 49.8055 8.112C49.8055 7.536 49.9815 7.064 50.3335 6.696C50.6855 6.312 51.2615 6.12 52.0615 6.12C53.3735 6.12 54.0295 6.872 54.0295 8.376C54.0295 8.952 53.8535 9.424 53.5015 9.792C53.1495 10.16 52.5815 10.344 51.7975 10.344ZM59.4049 13.68C59.6449 12.832 60.0449 12.16 60.6049 11.664C61.1649 11.168 61.8129 10.92 62.5489 10.92C63.3009 10.92 63.9809 11.072 64.5889 11.376L63.7489 14.28C63.2529 14.136 62.8289 14.064 62.4769 14.064C61.8529 14.064 61.2849 14.296 60.7729 14.76C60.2769 15.224 60.0289 15.904 60.0289 16.8V24H56.3569V14.952L56.0929 11.4L58.8769 11.04L59.3089 13.68H59.4049Z" fill="white"/>
</svg>
