<svg width="81" height="31" viewBox="0 0 81 31" fill="none" xmlns="http://www.w3.org/2000/svg">
<path d="M0 20.6667C0 9.25278 9.25278 0 20.6667 0H70.6667C76.3736 0 81 4.62639 81 10.3333V10.3333C81 21.7472 71.7472 31 60.3333 31H10.3333C4.62639 31 0 26.3736 0 20.6667V20.6667Z" fill="#A2D729"/>
<path d="M18.0312 4.92188C18.125 4.64062 18.2578 4.47656 18.4297 4.42969C18.6172 4.38281 18.8281 4.35938 19.0625 4.35938C19.4219 4.35938 19.8203 4.60156 20.2578 5.08594C20.7109 5.55469 21.1719 6.1875 21.6406 6.98438C22.1094 7.78125 22.5781 8.69531 23.0469 9.72656C23.5312 10.7578 23.9922 11.8281 24.4297 12.9375C24.8828 14.0312 25.3047 15.125 25.6953 16.2188C26.0859 17.3125 26.4219 18.3203 26.7031 19.2422C27 20.1484 27.2266 20.9375 27.3828 21.6094C27.5391 22.2812 27.6172 22.7422 27.6172 22.9922C27.6172 23.2422 27.5547 23.4844 27.4297 23.7188C27.3203 23.9375 27.1172 24.0469 26.8203 24.0469C26.6328 24.0469 26.4688 23.9922 26.3281 23.8828C26.2031 23.7578 26.0938 23.6094 26 23.4375C25.9062 23.2656 25.8203 23.0938 25.7422 22.9219C25.6641 22.75 25.5938 22.6016 25.5312 22.4766C25.4688 22.3047 25.3359 21.9766 25.1328 21.4922C24.9453 21.0078 24.7422 20.5 24.5234 19.9688C24.3203 19.4375 24.125 18.9375 23.9375 18.4688C23.75 18 23.6172 17.6641 23.5391 17.4609C22.4453 17.2734 21.3438 17.1016 20.2344 16.9453C19.1406 16.7734 17.9844 16.6094 16.7656 16.4531H16.5078C15.9453 18.875 15.4453 20.7891 15.0078 22.1953C14.5859 23.6016 14.2266 24.6016 13.9297 25.1953C13.6484 25.7891 13.4219 26.0312 13.25 25.9219C13.0938 25.8281 12.9844 25.4766 12.9219 24.8672C12.875 24.2422 12.8828 23.4141 12.9453 22.3828C13.0234 21.3516 13.1562 20.2188 13.3438 18.9844C13.5469 17.7344 13.7891 16.4297 14.0703 15.0703C14.3516 13.7109 14.6875 12.3984 15.0781 11.1328C15.4844 9.86719 15.9297 8.69531 16.4141 7.61719C16.9141 6.52344 17.4531 5.625 18.0312 4.92188ZM17.4688 13.1719C17.4688 13.75 17.6562 14.1797 18.0312 14.4609C18.4062 14.7266 18.8594 14.8984 19.3906 14.9766C19.9219 15.0547 20.4766 15.0859 21.0547 15.0703C21.6484 15.0547 22.1562 15.0469 22.5781 15.0469C22.5781 14.4219 22.4766 13.75 22.2734 13.0312C22.0703 12.2969 21.8125 11.5703 21.5 10.8516C21.1875 10.1328 20.8516 9.4375 20.4922 8.76562C20.1484 8.07812 19.8281 7.46094 19.5312 6.91406C19.3594 7.08594 19.1719 7.40625 18.9688 7.875C18.7812 8.32812 18.5859 8.84375 18.3828 9.42188C18.1953 9.98438 18.0234 10.5391 17.8672 11.0859C17.7109 11.6328 17.5938 12.0781 17.5156 12.4219C17.5156 12.4688 17.5078 12.5938 17.4922 12.7969C17.4766 12.9844 17.4688 13.1094 17.4688 13.1719ZM28.7712 15.6562C28.7712 15.2656 28.8337 14.9609 28.9587 14.7422C29.0994 14.5234 29.3884 14.4141 29.8259 14.4141C29.8728 14.4141 29.9587 14.4219 30.0837 14.4375C30.2244 14.4375 30.3103 14.4375 30.3416 14.4375C30.4509 14.9219 30.5603 15.4531 30.6697 16.0312C30.7947 16.5938 30.9353 17.1641 31.0916 17.7422C31.2478 18.3203 31.4197 18.8906 31.6072 19.4531C31.8103 20.0156 32.0525 20.5234 32.3337 20.9766C32.615 20.6797 32.8181 20.3281 32.9431 19.9219C33.0681 19.5156 33.1619 19.1094 33.2244 18.7031C33.2869 18.2812 33.3416 17.8828 33.3884 17.5078C33.4509 17.1172 33.5681 16.7891 33.74 16.5234C33.9119 16.2422 34.1619 16.0391 34.49 15.9141C34.8337 15.7891 35.3025 15.7891 35.8962 15.9141C36.5525 15.9141 37.0759 16.0391 37.4666 16.2891C37.8572 16.5234 38.1931 16.8281 38.4744 17.2031C38.7712 17.5625 39.0525 17.9531 39.3181 18.375C39.5994 18.7812 39.9509 19.1484 40.3728 19.4766C40.4666 19.2734 40.5837 19.0234 40.7244 18.7266C40.865 18.4141 41.0369 18.0938 41.24 17.7656C41.4587 17.4219 41.6853 17.0859 41.9197 16.7578C42.1697 16.4141 42.4275 16.1094 42.6931 15.8438C42.9587 15.5625 43.2322 15.3359 43.5134 15.1641C43.7947 14.9766 44.0681 14.8828 44.3337 14.8828C44.9744 14.8828 45.5291 15.0859 45.9978 15.4922C46.4666 15.8828 46.865 16.3828 47.1931 16.9922C47.5369 17.5859 47.8181 18.2578 48.0369 19.0078C48.2556 19.7422 48.4275 20.4531 48.5525 21.1406C48.6775 21.8281 48.7634 22.4609 48.8103 23.0391C48.8728 23.6016 48.9041 24.0078 48.9041 24.2578C48.9041 24.4609 48.8572 24.6172 48.7634 24.7266C48.6697 24.8359 48.5525 24.9219 48.4119 24.9844C48.2712 25.0312 48.115 25.0625 47.9431 25.0781C47.7869 25.0938 47.6384 25.1016 47.4978 25.1016C47.4666 25.1016 47.4197 25.1016 47.3572 25.1016C47.2947 25.0859 47.2244 25.0703 47.1462 25.0547C47.0837 25.0391 46.9978 25.0156 46.8884 24.9844L45.365 17.9766C45.365 17.9297 45.3025 17.8438 45.1775 17.7188C45.0525 17.5781 44.9587 17.4922 44.8962 17.4609C44.8494 17.4609 44.8103 17.4531 44.7791 17.4375C44.7478 17.4375 44.7244 17.4375 44.7087 17.4375C44.6931 17.4219 44.6775 17.4141 44.6619 17.4141C44.3337 17.4141 44.0212 17.5469 43.7244 17.8125C43.4431 18.0781 43.1775 18.4141 42.9275 18.8203C42.6775 19.2266 42.4431 19.6797 42.2244 20.1797C42.0056 20.6797 41.8103 21.1797 41.6384 21.6797C41.4666 22.1641 41.3103 22.6172 41.1697 23.0391C41.0447 23.4453 40.9431 23.7578 40.865 23.9766C40.8025 24.0078 40.6775 24.0391 40.49 24.0703C40.3025 24.0859 40.1775 24.0938 40.115 24.0938C39.6775 24.0938 39.3416 23.9453 39.1072 23.6484C38.8728 23.3359 38.6775 22.9531 38.5212 22.5C38.3806 22.0469 38.2556 21.5547 38.1462 21.0234C38.0525 20.4766 37.9275 19.9766 37.7712 19.5234C37.6306 19.0703 37.4275 18.6953 37.1619 18.3984C36.9119 18.0859 36.5525 17.9297 36.0837 17.9297C35.9119 17.9297 35.7478 18.1016 35.5916 18.4453C35.4353 18.7891 35.2947 19.2266 35.1697 19.7578C35.0447 20.2734 34.9275 20.8359 34.8181 21.4453C34.7087 22.0391 34.615 22.6016 34.5369 23.1328C34.4744 23.6484 34.4275 24.0859 34.3962 24.4453C34.365 24.8047 34.3494 24.9844 34.3494 24.9844C34.3181 25.0312 34.2556 25.0859 34.1619 25.1484C34.0681 25.1953 33.9666 25.25 33.8572 25.3125C33.7634 25.375 33.6619 25.4219 33.5525 25.4531C33.4587 25.4844 33.3884 25.5 33.3416 25.5C32.9041 25.5 32.4822 25.3047 32.0759 24.9141C31.6697 24.5078 31.2947 23.9922 30.9509 23.3672C30.6228 22.7266 30.3181 22.0234 30.0369 21.2578C29.7712 20.4922 29.5447 19.7422 29.3572 19.0078C29.1697 18.2734 29.0212 17.6094 28.9119 17.0156C28.8181 16.4219 28.7712 15.9688 28.7712 15.6562ZM51.0894 16.7109C51.0894 16.6172 51.0894 16.4688 51.0894 16.2656C51.105 16.0469 51.1128 15.8203 51.1128 15.5859C51.1284 15.3516 51.1362 15.125 51.1362 14.9062C51.1519 14.6875 51.1597 14.5312 51.1597 14.4375C51.3316 14.1875 51.5503 13.9844 51.8159 13.8281C52.0972 13.6719 52.3784 13.5469 52.6597 13.4531C52.7066 14.2969 52.8394 15.1953 53.0581 16.1484C53.2769 17.1016 53.5112 18.0625 53.7612 19.0312C54.0112 19.9844 54.23 20.9297 54.4175 21.8672C54.6206 22.8047 54.7222 23.6797 54.7222 24.4922C54.7222 25.1953 54.3628 25.5469 53.6441 25.5469C53.2066 25.5469 52.8394 25.3672 52.5425 25.0078C52.2456 24.6484 52.0034 24.1953 51.8159 23.6484C51.6441 23.0859 51.5034 22.4688 51.3941 21.7969C51.2847 21.1094 51.2066 20.4375 51.1597 19.7812C51.1284 19.125 51.105 18.5234 51.0894 17.9766C51.0894 17.4297 51.0894 17.0078 51.0894 16.7109ZM51.4175 7.92188C51.7144 8.04688 51.9644 8.25 52.1675 8.53125C52.3706 8.8125 52.4566 9.07031 52.4253 9.30469C52.4097 9.52344 52.2378 9.67969 51.9097 9.77344C51.5816 9.85156 51.0347 9.75781 50.2691 9.49219C50.2691 9.07031 50.3472 8.70312 50.5034 8.39062C50.6753 8.07812 50.98 7.92188 51.4175 7.92188ZM55.8763 15.6562C55.8763 15.5156 55.8841 15.375 55.8997 15.2344C55.9153 15.0781 55.9466 14.9453 55.9934 14.8359C56.0403 14.7109 56.1106 14.6094 56.2044 14.5312C56.3138 14.4531 56.4622 14.4141 56.6497 14.4141C56.8059 14.4141 56.9778 14.5391 57.1653 14.7891C57.3684 15.0234 57.5716 15.3281 57.7747 15.7031C57.9778 16.0625 58.1731 16.4609 58.3606 16.8984C58.5638 17.3359 58.7356 17.7422 58.8763 18.1172C59.0325 18.4766 59.1575 18.7891 59.2513 19.0547C59.345 19.3203 59.3997 19.4609 59.4153 19.4766C59.6184 18.9297 59.845 18.3359 60.095 17.6953C60.345 17.0547 60.6497 16.4609 61.0091 15.9141C61.3841 15.3516 61.8216 14.8828 62.3216 14.5078C62.8372 14.1328 63.4622 13.9453 64.1966 13.9453C64.5716 13.9453 64.9231 14.0078 65.2513 14.1328C65.595 14.2422 65.8919 14.4141 66.1419 14.6484C66.4075 14.8672 66.6184 15.1328 66.7747 15.4453C66.9309 15.7578 67.0091 16.1172 67.0091 16.5234C67.0091 16.8672 66.8684 17.1094 66.5872 17.25C66.3216 17.3906 66.0169 17.4609 65.6731 17.4609H65.4388L64.4309 16.4531C64.3997 16.4531 64.3763 16.4453 64.3606 16.4297C64.3294 16.4297 64.2981 16.4297 64.2669 16.4297C64.2513 16.4141 64.2278 16.4062 64.1966 16.4062C63.6497 16.4062 63.22 16.5625 62.9075 16.875C62.6106 17.1719 62.3841 17.5469 62.2278 18C62.0716 18.4375 61.97 18.9062 61.9231 19.4062C61.8919 19.8906 61.8763 20.3359 61.8763 20.7422C61.8763 21.0547 61.9075 21.375 61.97 21.7031C62.0325 22.0156 62.1028 22.3281 62.1809 22.6406C62.2591 22.9375 62.3294 23.25 62.3919 23.5781C62.4544 23.8906 62.4856 24.2188 62.4856 24.5625C62.4856 25.2188 62.1341 25.5469 61.4309 25.5469C61.0403 25.5469 60.6341 25.3438 60.2122 24.9375C59.7903 24.5156 59.3684 23.9844 58.9466 23.3438C58.5403 22.7031 58.1497 22 57.7747 21.2344C57.3997 20.4531 57.0716 19.6953 56.7903 18.9609C56.5091 18.2266 56.2825 17.5625 56.1106 16.9688C55.9544 16.375 55.8763 15.9375 55.8763 15.6562Z" fill="white"/>
</svg>
