<svg width="81" height="31" viewBox="0 0 81 31" fill="none" xmlns="http://www.w3.org/2000/svg">
<path d="M0 20.6667C0 9.25278 9.25278 0 20.6667 0H70.6667C76.3736 0 81 4.62639 81 10.3333V10.3333C81 21.7472 71.7472 31 60.3333 31H10.3333C4.62639 31 0 26.3736 0 20.6667V20.6667Z" fill="#B10F2E"/>
<path d="M24.7773 19.9844H18.8242L17.0664 23.5H13.2812L22.3984 6.4375H25.5742L28.8203 23.5H25.3164L24.7773 19.9844ZM20.2305 17.1367H24.3438L23.3828 10.7852L20.2305 17.1367ZM35.8455 10.8086L35.5759 12.25C36.5994 11.1094 37.8377 10.5547 39.2908 10.5859C40.072 10.6016 40.7205 10.7812 41.2361 11.125C41.7517 11.4688 42.0994 11.9336 42.2791 12.5195C43.3962 11.1992 44.7087 10.5547 46.2166 10.5859C47.3806 10.6094 48.2556 11.0078 48.8416 11.7812C49.4353 12.5547 49.6853 13.6719 49.5916 15.1328L49.5681 15.4258L48.2205 23.5H44.9041L46.2517 15.4023C46.283 15.1133 46.2947 14.8438 46.2869 14.5938C46.2322 13.7734 45.7634 13.3516 44.8806 13.3281C43.9744 13.3281 43.197 13.8125 42.5486 14.7812L42.5134 15.0508L41.0369 23.5H37.7322L39.0798 15.4258C39.1111 15.1367 39.1228 14.8672 39.115 14.6172C39.0603 13.7891 38.5955 13.3633 37.7205 13.3398C36.8845 13.3164 36.1306 13.7109 35.4587 14.5234L33.8767 23.5H30.572L32.7634 10.8203L35.8455 10.8086ZM54.5777 23.5H51.2495L53.4527 10.8203H56.7808L54.5777 23.5ZM53.8394 7.59766C53.8237 7.07422 53.9956 6.64062 54.355 6.29688C54.7144 5.95313 55.148 5.78125 55.6558 5.78125C56.1558 5.76563 56.5894 5.91797 56.9566 6.23828C57.3237 6.55859 57.5152 6.97266 57.5308 7.48047C57.5464 7.96484 57.3823 8.38672 57.0386 8.74609C56.7027 9.10547 56.2612 9.29297 55.7144 9.30859C55.2222 9.32422 54.7886 9.17578 54.4136 8.86328C54.0464 8.55078 53.855 8.12891 53.8394 7.59766ZM66.3138 13.9961C65.8606 13.918 65.4895 13.8789 65.2005 13.8789C64.0208 13.8477 63.0872 14.2891 62.3997 15.2031L60.9348 23.5H57.6302L59.8333 10.8203L62.9388 10.8086L62.6341 12.3555C63.4309 11.1602 64.4153 10.5625 65.5872 10.5625C65.9153 10.5625 66.2981 10.6172 66.7356 10.7266L66.3138 13.9961Z" fill="white"/>
</svg>
