<svg width="81" height="31" viewBox="0 0 81 31" fill="none" xmlns="http://www.w3.org/2000/svg">
<path d="M0 20.6667C0 9.25278 9.25278 0 20.6667 0H70.6667C76.3736 0 81 4.62639 81 10.3333V10.3333C81 21.7472 71.7472 31 60.3333 31H10.3333C4.62639 31 0 26.3736 0 20.6667V20.6667Z" fill="#F45B69"/>
<path d="M23.8 21.676C23.944 21.276 24.08 20.9 24.208 20.548C24.352 20.212 24.456 20.044 24.52 20.044C24.552 20.044 24.576 20.036 24.592 20.02C24.56 20.02 24.528 20.004 24.496 19.972C24.496 19.924 24.512 19.892 24.544 19.876C24.592 19.844 24.616 19.796 24.616 19.732V19.684L24.544 19.732C24.544 19.652 24.56 19.612 24.592 19.612C24.64 19.612 24.664 19.588 24.664 19.54H24.616C24.616 19.46 24.64 19.396 24.688 19.348C24.752 19.3 24.792 19.228 24.808 19.132L24.832 18.988L25.192 17.692L25.168 17.668C25.152 17.668 25.136 17.668 25.12 17.668C25.104 17.652 25.088 17.644 25.072 17.644H24.712C24.664 17.628 24.584 17.604 24.472 17.572C24.36 17.524 24.248 17.476 24.136 17.428C24.024 17.38 23.928 17.324 23.848 17.26C23.768 17.196 23.728 17.14 23.728 17.092C23.728 17.012 23.744 16.972 23.776 16.972C23.824 16.972 23.888 16.956 23.968 16.924C23.808 16.86 23.728 16.732 23.728 16.54H23.872C23.888 16.54 23.936 16.54 24.016 16.54C24.096 16.524 24.176 16.516 24.256 16.516C24.336 16.516 24.408 16.516 24.472 16.516C24.552 16.5 24.6 16.492 24.616 16.492H24.952C24.968 16.492 25.016 16.492 25.096 16.492C25.192 16.492 25.296 16.492 25.408 16.492C25.52 16.476 25.616 16.452 25.696 16.42C25.792 16.388 25.84 16.34 25.84 16.276V16.228L26.08 15.58L26.32 15.244L26.368 14.812L26.488 14.836L26.536 14.404L27.04 13.78L26.824 13.612L27.064 13.132C27.08 13.132 27.12 13.052 27.184 12.892C27.248 12.732 27.32 12.54 27.4 12.316C27.496 12.092 27.584 11.86 27.664 11.62C27.76 11.364 27.832 11.148 27.88 10.972L28 10.708C27.984 10.692 27.976 10.684 27.976 10.684C27.976 10.652 27.984 10.604 28 10.54C28.032 10.476 28.088 10.38 28.168 10.252C28.184 10.22 28.2 10.164 28.216 10.084C28.248 9.988 28.28 9.892 28.312 9.796C28.344 9.684 28.376 9.588 28.408 9.508C28.456 9.412 28.512 9.348 28.576 9.316L28.696 9.388C28.68 9.388 28.704 9.388 28.768 9.388C28.832 9.372 28.896 9.348 28.96 9.316C29.12 9.46 29.264 9.564 29.392 9.628C29.52 9.676 29.632 9.716 29.728 9.748C29.84 9.78 29.936 9.82 30.016 9.868C30.096 9.916 30.16 10.004 30.208 10.132C30.208 10.164 30.232 10.26 30.28 10.42C30.344 10.58 30.376 10.692 30.376 10.756V10.78C30.648 11.004 30.872 11.284 31.048 11.62C31.24 11.956 31.336 12.244 31.336 12.484L31.312 12.628L31.744 14.236V14.596C31.84 14.596 31.888 14.62 31.888 14.668C31.856 14.7 31.84 14.74 31.84 14.788L31.792 14.884L31.84 14.932V15.556H31.888C31.888 15.588 31.88 15.62 31.864 15.652C31.848 15.684 31.84 15.716 31.84 15.748L31.936 15.844C31.92 15.908 31.912 15.996 31.912 16.108C31.912 16.22 31.92 16.324 31.936 16.42C31.952 16.5 31.976 16.588 32.008 16.684C31.96 16.716 31.936 16.796 31.936 16.924C31.936 16.972 31.944 17.004 31.96 17.02C31.976 17.02 31.984 17.036 31.984 17.068C31.984 17.116 31.976 17.156 31.96 17.188L32.08 17.14L32.008 17.236L32.08 17.332L32.008 17.548C32.008 17.612 32.032 17.668 32.08 17.716C32.144 17.764 32.176 17.828 32.176 17.908C32.144 17.908 32.128 17.924 32.128 17.956V17.98C32.128 18.028 32.136 18.06 32.152 18.076C32.168 18.076 32.176 18.092 32.176 18.124L32.128 18.22C32.128 18.396 32.136 18.5 32.152 18.532C32.168 18.564 32.216 18.644 32.296 18.772V18.868V19.468C32.328 19.5 32.352 19.524 32.368 19.54C32.4 19.54 32.416 19.556 32.416 19.588C32.416 19.604 32.408 19.62 32.392 19.636L32.44 19.708C32.44 19.788 32.448 19.868 32.464 19.948C32.496 20.012 32.512 20.06 32.512 20.092C32.512 20.204 32.472 20.284 32.392 20.332C32.328 20.364 32.296 20.428 32.296 20.524C32.28 20.524 32.264 20.5 32.248 20.452C32.248 20.404 32.216 20.38 32.152 20.38C32.152 20.46 32.144 20.5 32.128 20.5C32.128 20.516 32.096 20.524 32.032 20.524H31.912C31.88 20.524 31.848 20.492 31.816 20.428C31.8 20.364 31.776 20.332 31.744 20.332H31.336C31.272 20.332 31.24 20.324 31.24 20.308C31.24 20.276 31.224 20.26 31.192 20.26C31.128 20.26 31.08 20.284 31.048 20.332C31.016 20.364 30.96 20.38 30.88 20.38C30.592 20.316 30.448 20.132 30.448 19.828C30.448 19.796 30.456 19.772 30.472 19.756C30.504 19.724 30.52 19.7 30.52 19.684C30.52 19.476 30.496 19.3 30.448 19.156C30.4 18.996 30.376 18.82 30.376 18.628C30.424 18.628 30.456 18.644 30.472 18.676C30.488 18.692 30.512 18.716 30.544 18.748C30.512 18.748 30.496 18.788 30.496 18.868C30.496 18.932 30.552 18.98 30.664 19.012C30.664 18.98 30.656 18.964 30.64 18.964C30.64 18.964 30.64 18.956 30.64 18.94C30.64 18.924 30.64 18.916 30.64 18.916C30.656 18.9 30.664 18.884 30.664 18.868C30.648 18.82 30.64 18.764 30.64 18.7C30.64 18.62 30.632 18.54 30.616 18.46L30.568 18.172L30.52 18.1L30.496 18.316L30.448 18.196L30.352 18.508C30.352 18.46 30.344 18.396 30.328 18.316C30.328 18.22 30.328 18.124 30.328 18.028V17.644C30.312 17.612 30.256 17.588 30.16 17.572C30.08 17.54 29.984 17.524 29.872 17.524C29.776 17.508 29.68 17.5 29.584 17.5C29.488 17.5 29.416 17.5 29.368 17.5C29.288 17.5 29.224 17.508 29.176 17.524C29.128 17.54 29.064 17.548 28.984 17.548C28.888 17.548 28.784 17.54 28.672 17.524C28.56 17.492 28.48 17.476 28.432 17.476H28.192C28.096 17.476 28.024 17.516 27.976 17.596C27.944 17.676 27.92 17.772 27.904 17.884C27.888 17.98 27.88 18.076 27.88 18.172C27.88 18.268 27.872 18.332 27.856 18.364L27.76 18.556L27.904 18.604L27.856 18.676H27.616C27.616 18.788 27.576 18.924 27.496 19.084C27.416 19.244 27.344 19.372 27.28 19.468L27.232 19.54C27.232 19.556 27.224 19.572 27.208 19.588C27.208 19.604 27.208 19.62 27.208 19.636V19.684C27.208 19.732 27.232 19.78 27.28 19.828C27.2 19.908 27.128 20.02 27.064 20.164C27 20.292 26.952 20.42 26.92 20.548V20.764C26.856 20.94 26.776 21.124 26.68 21.316C26.584 21.524 26.536 21.7 26.536 21.844H26.68C26.648 21.892 26.608 21.916 26.56 21.916C26.512 21.916 26.488 21.948 26.488 22.012H26.512C26.544 22.012 26.56 22.044 26.56 22.108C26.56 22.204 26.528 22.276 26.464 22.324C26.416 22.388 26.36 22.444 26.296 22.492C26.248 22.556 26.192 22.628 26.128 22.708C26.08 22.788 26.056 22.9 26.056 23.044L26.128 23.092C26.128 23.14 26.08 23.236 25.984 23.38C25.888 23.524 25.824 23.636 25.792 23.716C25.792 23.764 25.744 23.796 25.648 23.812C25.648 23.86 25.664 23.884 25.696 23.884C25.728 23.884 25.76 23.892 25.792 23.908C25.76 23.972 25.728 24.02 25.696 24.052C25.664 24.084 25.648 24.132 25.648 24.196L25.792 24.148C25.792 24.212 25.776 24.252 25.744 24.268C25.728 24.284 25.72 24.316 25.72 24.364V24.388L25.456 25.036H25.528L25.432 25.756C25.384 25.82 25.36 25.868 25.36 25.9C25.36 25.948 25.344 26.012 25.312 26.092L25.336 26.116C25.336 26.148 25.296 26.172 25.216 26.188C25.152 26.204 25.08 26.252 25 26.332C24.968 26.332 24.928 26.308 24.88 26.26C24.848 26.212 24.832 26.172 24.832 26.14C24.832 26.124 24.84 26.108 24.856 26.092C24.776 26.044 24.736 26.012 24.736 25.996C24.736 25.98 24.704 25.972 24.64 25.972L24.568 26.068C24.536 26.164 24.52 26.204 24.52 26.188L23.992 26.116L24.448 25.972C24.416 25.956 24.32 25.94 24.16 25.924C24.016 25.924 23.92 25.924 23.872 25.924C23.84 25.956 23.824 25.98 23.824 25.996C23.824 26.012 23.8 26.02 23.752 26.02V25.852C23.736 25.868 23.72 25.876 23.704 25.876C23.672 25.876 23.616 25.86 23.536 25.828C23.456 25.812 23.384 25.804 23.32 25.804V25.684C23.208 25.684 23.12 25.708 23.056 25.756C22.976 25.676 22.904 25.572 22.84 25.444C22.792 25.332 22.752 25.26 22.72 25.228C22.832 25.164 22.888 25.084 22.888 24.988C22.904 24.892 22.912 24.78 22.912 24.652H22.984L23.104 24.892C23.136 24.684 23.184 24.46 23.248 24.22C23.328 23.98 23.368 23.772 23.368 23.596V23.332L23.44 23.044C23.504 22.916 23.552 22.82 23.584 22.756C23.616 22.692 23.648 22.604 23.68 22.492L23.752 22.396H24.016L24.4 22.276V22.396L24.256 22.66V22.924L24.424 23.068C24.424 22.988 24.464 22.892 24.544 22.78C24.64 22.684 24.688 22.604 24.688 22.54V22.156C24.688 22.108 24.664 22.068 24.616 22.036C24.584 22.02 24.552 22.012 24.52 22.012H24.4L24.256 22.156H23.872L23.8 21.676ZM28.624 16.228H28.936C29 16.228 29.096 16.228 29.224 16.228C29.368 16.228 29.504 16.22 29.632 16.204C29.776 16.172 29.896 16.132 29.992 16.084C30.088 16.036 30.136 15.972 30.136 15.892H30.04V15.556C30.024 15.556 30.016 15.548 30.016 15.532V15.388H29.968C29.968 15.356 29.976 15.332 29.992 15.316C30.008 15.3 30.016 15.276 30.016 15.244V15.196L29.896 15.172C29.944 15.172 29.984 15.156 30.016 15.124L29.968 14.932V14.884C29.968 14.852 29.976 14.836 29.992 14.836C30.008 14.82 30.016 14.788 30.016 14.74C30.016 14.644 29.984 14.548 29.92 14.452C29.872 14.356 29.848 14.268 29.848 14.188L29.896 14.02L29.632 13.372V13.324C29.632 13.292 29.616 13.244 29.584 13.18C29.552 13.116 29.536 13.076 29.536 13.06C29.392 13.476 29.232 13.956 29.056 14.5C28.88 15.028 28.704 15.492 28.528 15.892L28.48 16.18L28.624 16.228ZM23.968 23.596C23.968 23.628 23.952 23.708 23.92 23.836L23.872 23.98V24.652L24.016 24.532C24.016 24.452 24.024 24.38 24.04 24.316C24.072 24.252 24.088 24.188 24.088 24.124V23.452L23.968 23.596ZM23.632 23.644C23.6 23.724 23.568 23.804 23.536 23.884C23.504 23.964 23.488 24.044 23.488 24.124V24.484L23.632 24.124V23.644ZM30.688 19.804V19.876C30.688 19.988 30.728 20.044 30.808 20.044C30.808 20.028 30.808 20.004 30.808 19.972C30.824 19.924 30.832 19.884 30.832 19.852C30.832 19.756 30.8 19.708 30.736 19.708C30.704 19.708 30.688 19.74 30.688 19.804ZM24.52 23.188C24.456 23.188 24.424 23.236 24.424 23.332C24.424 23.412 24.456 23.452 24.52 23.452C24.6 23.452 24.64 23.412 24.64 23.332C24.64 23.236 24.6 23.188 24.52 23.188ZM24.256 23.068C24.192 23.068 24.16 23.116 24.16 23.212C24.16 23.292 24.192 23.332 24.256 23.332C24.336 23.332 24.376 23.292 24.376 23.212C24.376 23.116 24.336 23.068 24.256 23.068ZM24.448 25.804C24.448 25.788 24.376 25.78 24.232 25.78C24.104 25.78 24.032 25.78 24.016 25.78C24 25.78 23.992 25.788 23.992 25.804L24.016 25.852H24.184C24.248 25.852 24.304 25.852 24.352 25.852C24.416 25.852 24.448 25.836 24.448 25.804ZM23.488 24.772C23.488 24.692 23.464 24.652 23.416 24.652C23.384 24.652 23.368 24.692 23.368 24.772C23.368 24.836 23.384 24.868 23.416 24.868C23.464 24.868 23.488 24.836 23.488 24.772ZM30.664 19.3V19.372V19.516V19.564H30.712C30.712 19.532 30.712 19.508 30.712 19.492C30.728 19.476 30.736 19.452 30.736 19.42C30.736 19.372 30.712 19.332 30.664 19.3ZM25.312 25.756H25.36L25.312 25.684V25.756ZM25.048 26.164V26.116H25L25.048 26.164ZM38.2906 17.26C38.2906 17.18 38.3226 17.068 38.3866 16.924C38.4666 16.764 38.5066 16.58 38.5066 16.372V16.324H38.4346C38.4026 16.324 38.3066 16.372 38.1466 16.468C38.0026 16.548 37.8426 16.644 37.6666 16.756C37.4906 16.868 37.3306 16.98 37.1866 17.092C37.0426 17.188 36.9626 17.26 36.9466 17.308L36.8986 17.26C36.8666 17.292 36.8106 17.388 36.7306 17.548C36.6506 17.692 36.5786 17.948 36.5146 18.316C36.4506 18.492 36.3706 18.596 36.2746 18.628L36.3226 18.796L36.0346 19.228L36.1546 19.276C36.1226 19.34 36.1066 19.412 36.1066 19.492C36.1066 19.54 36.1146 19.572 36.1306 19.588L36.0586 19.636C36.0426 19.668 36.0346 19.708 36.0346 19.756C36.0346 19.836 36.0506 19.9 36.0826 19.948C36.1146 19.996 36.1306 20.06 36.1306 20.14C36.1306 20.172 36.1226 20.196 36.1066 20.212C36.1066 20.212 36.1066 20.228 36.1066 20.26L36.0586 20.284L36.1306 20.428L36.0826 20.596C36.0506 20.596 36.0266 20.604 36.0106 20.62C35.9946 20.636 35.9706 20.644 35.9386 20.644C35.9066 20.644 35.8666 20.636 35.8186 20.62C35.7866 20.604 35.7306 20.596 35.6506 20.596C35.5226 20.596 35.3706 20.604 35.1946 20.62C35.0346 20.636 34.9146 20.66 34.8346 20.692C34.5626 20.644 34.3866 20.54 34.3066 20.38C34.2266 20.204 34.1866 20.052 34.1866 19.924C34.1866 19.828 34.1946 19.764 34.2106 19.732C34.2426 19.7 34.2666 19.676 34.2826 19.66C34.3146 19.628 34.3386 19.604 34.3546 19.588C34.3866 19.556 34.4026 19.508 34.4026 19.444C34.4026 19.412 34.3946 19.396 34.3786 19.396L34.2586 19.18V18.892C34.2586 18.876 34.2586 18.844 34.2586 18.796C34.2586 18.732 34.2666 18.66 34.2826 18.58L34.3306 18.292C34.3466 18.212 34.3626 18.148 34.3786 18.1C34.3946 18.052 34.4106 18.012 34.4266 17.98L34.5706 17.788L34.4986 17.716C34.4986 17.684 34.4986 17.644 34.4986 17.596C34.4986 17.532 34.5066 17.476 34.5226 17.428C34.5386 17.364 34.5546 17.316 34.5706 17.284C34.5706 17.284 34.5866 17.316 34.6186 17.38C34.7786 17.108 34.8586 16.82 34.8586 16.516V16.3L35.1226 15.916C35.1226 15.852 35.1306 15.796 35.1466 15.748L35.1946 15.484C35.3226 15.308 35.4106 15.116 35.4586 14.908C35.5226 14.684 35.5706 14.492 35.6026 14.332L35.7706 14.26C35.8026 14.26 35.8266 14.252 35.8426 14.236C35.8586 14.204 35.8906 14.188 35.9386 14.188C36.0186 14.188 36.0506 14.212 36.0346 14.26C36.0346 14.308 36.0666 14.348 36.1306 14.38C36.2426 14.412 36.3706 14.452 36.5146 14.5C36.6586 14.548 36.7306 14.652 36.7306 14.812V15.004C36.7306 15.052 36.7386 15.084 36.7546 15.1L36.8506 15.196C36.9626 15.276 37.0186 15.356 37.0186 15.436C37.0186 15.5 37.0506 15.588 37.1146 15.7C37.2746 15.636 37.4506 15.556 37.6426 15.46C37.8346 15.364 38.0346 15.276 38.2426 15.196C38.4666 15.116 38.6826 15.052 38.8906 15.004C39.0986 14.94 39.2986 14.908 39.4906 14.908C39.5546 14.908 39.5946 14.916 39.6106 14.932C39.6426 14.948 39.6986 14.956 39.7786 14.956L39.8266 15.052C39.8426 15.068 39.8666 15.076 39.8986 15.076H39.9706C40.1306 15.076 40.2746 15.156 40.4026 15.316C40.5466 15.46 40.6186 15.572 40.6186 15.652C40.6186 15.748 40.6106 15.868 40.5946 16.012C40.5786 16.156 40.5706 16.34 40.5706 16.564L40.7626 16.468C40.8106 16.42 40.8826 16.38 40.9786 16.348L41.0986 16.276C41.1946 16.276 41.2986 16.236 41.4106 16.156C41.5386 16.076 41.6826 15.996 41.8426 15.916C42.0026 15.82 42.1866 15.732 42.3946 15.652C42.6026 15.572 42.8346 15.532 43.0906 15.532C43.2186 15.532 43.3546 15.54 43.4986 15.556C43.6426 15.572 43.7626 15.62 43.8586 15.7L44.0986 15.892C44.1626 15.972 44.2106 16.06 44.2426 16.156C44.2906 16.236 44.3146 16.324 44.3146 16.42C44.3146 16.564 44.2666 16.692 44.1706 16.804L44.2186 17.308C44.2186 17.34 44.2186 17.372 44.2186 17.404C44.2346 17.436 44.2426 17.468 44.2426 17.5C44.2426 17.628 44.2186 17.7 44.1706 17.716C44.1226 17.716 44.0826 17.732 44.0506 17.764L43.8586 17.908L44.0266 17.956L44.0986 18.1L44.0266 18.124H44.1706C44.1386 18.236 44.1066 18.316 44.0746 18.364C44.0586 18.396 44.0426 18.428 44.0266 18.46C44.0106 18.476 43.9946 18.508 43.9786 18.556C43.9626 18.588 43.9466 18.66 43.9306 18.772L43.9786 18.82L43.9546 18.868C43.8746 19.124 43.8026 19.316 43.7386 19.444C43.6906 19.572 43.6426 19.692 43.5946 19.804C43.5466 19.9 43.5066 20.02 43.4746 20.164C43.4426 20.292 43.4186 20.484 43.4026 20.74L43.0666 20.764L43.0186 20.812L42.1066 20.62C42.0746 20.588 42.0106 20.492 41.9146 20.332C41.8346 20.156 41.7946 19.9 41.7946 19.564C41.7946 19.356 41.8026 19.236 41.8186 19.204C41.8346 19.172 41.8586 19.092 41.8906 18.964L42.1066 17.428L42.0826 17.044C41.9546 17.06 41.8746 17.116 41.8426 17.212C41.8106 17.308 41.7386 17.372 41.6266 17.404C41.4026 17.468 41.1946 17.508 41.0026 17.524C40.8106 17.524 40.6426 17.556 40.4986 17.62C40.3546 17.668 40.2266 17.772 40.1146 17.932C40.0186 18.076 39.9386 18.316 39.8746 18.652C39.8426 18.668 39.8186 18.78 39.8026 18.988C39.8026 19.18 39.7946 19.396 39.7786 19.636C39.7786 19.876 39.7626 20.092 39.7306 20.284C39.6986 20.476 39.6506 20.572 39.5866 20.572L38.7706 20.596C38.6426 20.468 38.4986 20.356 38.3386 20.26C38.1946 20.164 38.1146 20.02 38.0986 19.828V19.66H38.1706C38.0586 19.596 38.0026 19.5 38.0026 19.372L38.1946 19.612V19.564C38.1786 19.548 38.1706 19.492 38.1706 19.396C38.2026 19.364 38.2346 19.324 38.2666 19.276C38.2986 19.228 38.3466 19.172 38.4106 19.108L38.1946 18.988C38.2266 18.972 38.2506 18.948 38.2666 18.916C38.2986 18.884 38.3386 18.868 38.3866 18.868C38.3706 18.804 38.3466 18.764 38.3146 18.748C38.2986 18.732 38.2906 18.692 38.2906 18.628C38.2906 18.58 38.2986 18.532 38.3146 18.484L38.3866 18.412C38.3706 18.316 38.3146 18.26 38.2186 18.244C38.2986 18.196 38.3306 18.124 38.3146 18.028C38.2986 17.932 38.3226 17.884 38.3866 17.884L38.4826 17.98C38.5146 17.932 38.5386 17.916 38.5546 17.932C38.5866 17.932 38.6186 17.916 38.6506 17.884C38.6506 17.82 38.5946 17.764 38.4826 17.716C38.3706 17.668 38.3146 17.588 38.3146 17.476C38.3146 17.46 38.2986 17.444 38.2666 17.428C38.2506 17.412 38.2426 17.388 38.2426 17.356L38.2906 17.26ZM38.1466 19.132C38.1626 19.132 38.1706 19.156 38.1706 19.204C38.1706 19.236 38.1546 19.252 38.1226 19.252C38.0906 19.252 38.0746 19.244 38.0746 19.228C38.0746 19.164 38.0986 19.132 38.1466 19.132ZM38.4346 17.812C38.4666 17.844 38.4826 17.868 38.4826 17.884H38.4346C38.4026 17.884 38.3866 17.876 38.3866 17.86C38.3866 17.828 38.4026 17.812 38.4346 17.812ZM38.5306 18.076C38.5306 18.108 38.5466 18.124 38.5786 18.124C38.5946 18.108 38.6026 18.092 38.6026 18.076L38.5786 18.052C38.5466 18.052 38.5306 18.06 38.5306 18.076ZM46.3167 20.5C46.1887 20.436 46.1087 20.356 46.0767 20.26C46.0447 20.164 46.0287 20.044 46.0287 19.9V19.54L46.4367 15.364C46.4367 15.348 46.4287 15.34 46.4127 15.34C46.4127 15.324 46.4127 15.3 46.4127 15.268C46.4127 15.284 46.4207 15.228 46.4367 15.1C46.4527 14.972 46.4767 14.828 46.5087 14.668C46.5407 14.508 46.5727 14.364 46.6047 14.236C46.6367 14.092 46.6687 14.02 46.7007 14.02C46.7327 14.02 46.7887 14.036 46.8687 14.068C46.9647 14.1 47.0207 14.116 47.0367 14.116C47.2127 14.164 47.4127 14.212 47.6367 14.26C47.8767 14.292 48.1007 14.348 48.3087 14.428C48.5327 14.492 48.7167 14.596 48.8607 14.74C49.0207 14.884 49.1007 15.084 49.1007 15.34L48.8367 15.868C48.7567 16.028 48.6847 16.196 48.6207 16.372C48.5727 16.532 48.5407 16.692 48.5247 16.852C48.5247 16.868 48.5247 16.924 48.5247 17.02C48.5247 17.1 48.5167 17.204 48.5007 17.332C48.5007 17.444 48.5007 17.564 48.5007 17.692C48.5007 17.82 48.5007 17.932 48.5007 18.028V18.412L48.5487 18.46C48.5487 18.476 48.5327 18.508 48.5007 18.556C48.4847 18.588 48.4767 18.628 48.4767 18.676L48.5007 18.748C48.5007 18.764 48.4847 18.78 48.4527 18.796C48.4207 18.812 48.3967 18.82 48.3807 18.82L48.4287 18.988C48.4127 18.988 48.4047 18.996 48.4047 19.012L48.3567 19.084C48.3567 19.068 48.3487 19.06 48.3327 19.06C48.3327 19.044 48.3327 19.028 48.3327 19.012L48.2607 18.988L48.1887 19.036C48.1727 19.068 48.1567 19.164 48.1407 19.324C48.1247 19.484 48.1007 19.58 48.0687 19.612H48.1167C48.1647 19.612 48.2287 19.548 48.3087 19.42C48.4047 19.276 48.4607 19.204 48.4767 19.204C48.4447 19.38 48.4207 19.588 48.4047 19.828C48.4047 20.052 48.4047 20.252 48.4047 20.428L48.4767 20.62L48.2127 20.548L48.1167 20.62C48.0847 20.62 48.0207 20.636 47.9247 20.668L47.8287 20.716L47.4687 20.548H47.3487L46.9887 20.716L46.7967 20.692V20.596H46.4367L46.3167 20.5ZM46.4127 12.1C46.4127 11.764 46.4607 11.468 46.5567 11.212C46.6687 10.956 46.7967 10.684 46.9407 10.396L47.0607 10.468C47.0767 10.468 47.1007 10.484 47.1327 10.516C47.1807 10.532 47.2287 10.54 47.2767 10.54H47.9007C47.9807 10.54 48.0687 10.596 48.1647 10.708C48.2607 10.82 48.3247 10.876 48.3567 10.876C48.3727 10.876 48.3887 10.876 48.4047 10.876C48.4367 10.86 48.4687 10.852 48.5007 10.852C48.6127 10.852 48.7167 10.892 48.8127 10.972C48.9247 11.036 49.0127 11.124 49.0767 11.236C49.1567 11.348 49.2127 11.46 49.2447 11.572C49.2927 11.684 49.3167 11.788 49.3167 11.884C49.3167 11.996 49.2367 12.116 49.0767 12.244C48.9327 12.372 48.7567 12.492 48.5487 12.604C48.3567 12.7 48.1487 12.788 47.9247 12.868C47.7167 12.932 47.5487 12.964 47.4207 12.964C47.1647 12.964 46.9327 12.876 46.7247 12.7C46.5327 12.524 46.4287 12.324 46.4127 12.1ZM47.8287 19.156C47.8287 19.188 47.8287 19.244 47.8287 19.324C47.8447 19.404 47.8687 19.46 47.9007 19.492L47.9487 19.204L48.0687 19.156V19.036C48.0207 19.036 47.9647 19.052 47.9007 19.084C47.8527 19.116 47.8287 19.14 47.8287 19.156ZM47.8527 20.548L48.0447 20.524V20.404L47.8047 20.38L47.8527 20.548ZM48.1887 20.716C48.2367 20.748 48.2607 20.788 48.2607 20.836C48.2607 20.9 48.2367 20.932 48.1887 20.932C48.1407 20.932 48.1167 20.9 48.1167 20.836C48.1167 20.756 48.1407 20.716 48.1887 20.716ZM48.2847 18.556V18.628C48.2847 18.66 48.3007 18.676 48.3327 18.676L48.4527 18.556V18.412L48.2847 18.556ZM53.2585 18.748V18.94C53.2585 19.052 53.2745 19.14 53.3065 19.204L53.3545 19.18C53.3545 19.244 53.3465 19.324 53.3305 19.42C53.3305 19.5 53.2985 19.556 53.2345 19.588L53.1145 20.644C53.0505 20.66 52.9785 20.668 52.8985 20.668H52.7785C52.7465 20.668 52.7065 20.684 52.6585 20.716L52.6345 20.524C52.5865 20.556 52.5625 20.604 52.5625 20.668V20.812V20.908C52.5305 20.876 52.4905 20.86 52.4425 20.86C52.4105 20.86 52.3945 20.86 52.3945 20.86C52.4105 20.876 52.4025 20.884 52.3705 20.884C52.3225 20.884 52.2265 20.852 52.0825 20.788C51.9385 20.724 51.7785 20.692 51.6025 20.692C51.5065 20.692 51.4345 20.7 51.3865 20.716C51.3865 20.684 51.3945 20.644 51.4105 20.596C51.4265 20.548 51.4345 20.508 51.4345 20.476C51.3545 20.396 51.2985 20.284 51.2665 20.14C51.2505 19.996 51.1785 19.924 51.0505 19.924H51.0025C51.0505 19.844 51.0745 19.756 51.0745 19.66C51.0905 19.548 51.0985 19.452 51.0985 19.372C51.0985 19.34 51.0825 19.244 51.0505 19.084L51.0265 18.772V18.58V18.484C51.0425 18.452 51.0745 18.42 51.1225 18.388C51.1865 18.356 51.2345 18.324 51.2665 18.292C51.2665 18.26 51.2505 18.212 51.2185 18.148C51.1865 18.084 51.1705 18.02 51.1705 17.956L51.2905 17.812C51.2745 17.812 51.2665 17.772 51.2665 17.692C51.2665 17.596 51.2665 17.484 51.2665 17.356C51.2825 17.228 51.2905 17.124 51.2905 17.044C51.2905 16.948 51.2825 16.9 51.2665 16.9L51.4825 14.164C51.4985 14.052 51.5305 13.988 51.5785 13.972C51.6425 13.94 51.7145 13.924 51.7945 13.924C51.8745 13.924 51.9785 13.948 52.1065 13.996C52.2345 14.028 52.3545 14.068 52.4665 14.116C52.5945 14.164 52.7065 14.22 52.8025 14.284C52.8985 14.332 52.9625 14.38 52.9945 14.428C53.0105 14.444 53.0345 14.5 53.0665 14.596C53.1145 14.692 53.1625 14.796 53.2105 14.908C53.2585 15.004 53.3065 15.1 53.3545 15.196C53.4185 15.276 53.4745 15.316 53.5225 15.316L53.5945 15.268C53.8025 15.14 53.9545 15.028 54.0505 14.932C54.1465 14.82 54.3145 14.74 54.5545 14.692C54.5545 14.628 54.6585 14.54 54.8665 14.428C55.0905 14.3 55.3225 14.18 55.5625 14.068C55.8185 13.94 56.0425 13.836 56.2345 13.756C56.4265 13.66 56.4905 13.612 56.4265 13.612C56.5065 13.612 56.6265 13.644 56.7865 13.708C56.9465 13.772 57.0905 13.868 57.2185 13.996L57.6745 14.452L57.3385 14.908L56.9785 15.028L57.0265 15.124C56.9465 15.22 56.8105 15.276 56.6185 15.292C56.4425 15.308 56.3065 15.348 56.2105 15.412C56.2105 15.428 56.2185 15.436 56.2345 15.436L56.2585 15.46C56.0185 15.524 55.7865 15.596 55.5625 15.676C55.3705 15.756 55.1705 15.844 54.9625 15.94C54.7545 16.02 54.5865 16.116 54.4585 16.228L54.0985 16.612C54.0985 16.596 54.0505 16.62 53.9545 16.684C53.8745 16.732 53.7785 16.804 53.6665 16.9C53.5705 16.98 53.4745 17.076 53.3785 17.188C53.2825 17.284 53.2345 17.372 53.2345 17.452V17.476L53.4265 17.548L53.2825 18.748H53.2585ZM55.4425 14.692C55.2185 14.756 55.0265 14.844 54.8665 14.956L54.6265 15.1L54.6505 15.148C54.8585 15.036 55.0665 14.94 55.2745 14.86C55.4985 14.764 55.6905 14.7 55.8505 14.668C55.7865 14.668 55.7145 14.668 55.6345 14.668C55.5545 14.668 55.4905 14.676 55.4425 14.692ZM54.1945 15.22C54.1625 15.252 54.0905 15.308 53.9785 15.388C53.8665 15.452 53.7945 15.5 53.7625 15.532L53.6185 15.652H53.6425C53.6745 15.604 53.7305 15.564 53.8105 15.532C53.8905 15.484 53.9705 15.444 54.0505 15.412C54.1465 15.364 54.2265 15.332 54.2905 15.316C54.3545 15.284 54.3865 15.252 54.3865 15.22C54.3865 15.188 54.3385 15.156 54.2425 15.124C54.2265 15.124 54.2185 15.14 54.2185 15.172C54.2185 15.188 54.2105 15.204 54.1945 15.22Z" fill="white"/>
</svg>
