<svg width="81" height="31" viewBox="0 0 81 31" fill="none" xmlns="http://www.w3.org/2000/svg">
<path d="M0 20.6667C0 9.25278 9.25278 0 20.6667 0H70.6667C76.3736 0 81 4.62639 81 10.3333V10.3333C81 21.7472 71.7472 31 60.3333 31H10.3333C4.62639 31 0 26.3736 0 20.6667V20.6667Z" fill="#FF4F79"/>
<path d="M21.648 20.4H13.824L11.64 24H7.488L18.36 7.2H22.2L26.328 24H22.44L21.648 20.4ZM21 17.448L19.584 10.968L15.624 17.448H21ZM46.839 10.896C48.247 10.896 49.367 11.28 50.199 12.048C51.031 12.8 51.447 13.872 51.447 15.264C51.447 15.776 51.391 16.304 51.279 16.848L49.863 24H46.119L47.487 17.112C47.551 16.792 47.583 16.464 47.583 16.128C47.583 15.472 47.407 14.976 47.055 14.64C46.719 14.304 46.215 14.136 45.543 14.136C43.735 14.136 42.607 15.216 42.159 17.376L40.839 24H37.095L38.463 17.112C38.527 16.792 38.559 16.472 38.559 16.152C38.559 15.496 38.383 15 38.031 14.664C37.695 14.312 37.191 14.136 36.519 14.136C34.711 14.136 33.575 15.232 33.111 17.424L31.815 24H28.071L30.639 11.088H34.191L33.903 12.432C35.023 11.408 36.375 10.896 37.959 10.896C38.855 10.896 39.647 11.08 40.335 11.448C41.039 11.8 41.567 12.32 41.919 13.008C42.543 12.32 43.271 11.8 44.103 11.448C44.935 11.08 45.847 10.896 46.839 10.896ZM56.0509 11.088H59.7709L57.2029 24H53.4829L56.0509 11.088ZM58.5469 9.288C57.9069 9.288 57.3789 9.104 56.9629 8.736C56.5629 8.352 56.3629 7.888 56.3629 7.344C56.3629 6.704 56.5869 6.176 57.0349 5.76C57.4989 5.328 58.0989 5.112 58.8349 5.112C59.4909 5.112 60.0189 5.296 60.4189 5.664C60.8349 6.016 61.0429 6.456 61.0429 6.984C61.0429 7.672 60.8109 8.232 60.3469 8.664C59.8829 9.08 59.2829 9.288 58.5469 9.288ZM66.7262 12.624C67.2862 12.016 67.9582 11.576 68.7422 11.304C69.5422 11.032 70.4782 10.896 71.5502 10.896L70.8782 14.352C70.4302 14.32 70.1422 14.304 70.0142 14.304C68.8782 14.304 67.9662 14.584 67.2782 15.144C66.6062 15.704 66.1502 16.576 65.9102 17.76L64.6622 24H60.9182L63.4862 11.088H67.0382L66.7262 12.624Z" fill="white"/>
</svg>
