<svg width="81" height="31" viewBox="0 0 81 31" fill="none" xmlns="http://www.w3.org/2000/svg">
<path d="M0 20.6667C0 9.25278 9.25278 0 20.6667 0H70.6667C76.3736 0 81 4.62639 81 10.3333V10.3333C81 21.7472 71.7472 31 60.3333 31H10.3333C4.62639 31 0 26.3736 0 20.6667V20.6667Z" fill="#6E7E85"/>
<path d="M23.468 18.608H16.82L15.044 23H12.692L19.604 5.96H20.852L27.788 23H25.292L23.468 18.608ZM17.54 16.592H22.772L20.828 11.816L20.18 9.248H20.132L19.484 11.864L17.54 16.592ZM38.4808 23V16.088C38.4808 15.416 38.4488 14.824 38.3848 14.312C38.3208 13.8 38.1928 13.376 38.0008 13.04C37.8088 12.688 37.5368 12.432 37.1848 12.272C36.8488 12.096 36.4088 12.008 35.8647 12.008C35.0167 12.008 34.3047 12.248 33.7287 12.728C33.1687 13.192 32.7687 13.792 32.5287 14.528V23H30.3207V10.4H31.8327L32.2648 12.08H32.5047C33.0167 11.504 33.6007 11.024 34.2567 10.64C34.9287 10.24 35.7767 10.04 36.8008 10.04C37.6648 10.04 38.3848 10.224 38.9608 10.592C39.5528 10.96 40.0008 11.576 40.3047 12.44C40.7848 11.704 41.3928 11.12 42.1288 10.688C42.8648 10.256 43.6888 10.04 44.6008 10.04C45.3688 10.04 46.0168 10.128 46.5448 10.304C47.0888 10.48 47.5288 10.784 47.8648 11.216C48.2008 11.648 48.4488 12.232 48.6088 12.968C48.7688 13.704 48.8488 14.632 48.8488 15.752V23H46.6407V15.752C46.6407 15.112 46.6007 14.56 46.5208 14.096C46.4568 13.632 46.3288 13.248 46.1368 12.944C45.9448 12.624 45.6728 12.392 45.3208 12.248C44.9848 12.088 44.5368 12.008 43.9767 12.008C43.0648 12.008 42.3448 12.248 41.8168 12.728C41.2888 13.208 40.9128 13.928 40.6888 14.888V23H38.4808ZM53.9426 10.4H56.1506V23H53.9426V10.4ZM53.4866 7.4C53.4866 7.032 53.6306 6.704 53.9186 6.416C54.2066 6.112 54.5826 5.96 55.0466 5.96C55.5106 5.96 55.8946 6.112 56.1986 6.416C56.5026 6.704 56.6546 7.032 56.6546 7.4C56.6546 7.768 56.5026 8.096 56.1986 8.384C55.8946 8.656 55.5106 8.792 55.0466 8.792C54.5826 8.792 54.2066 8.656 53.9186 8.384C53.6306 8.096 53.4866 7.768 53.4866 7.4ZM67.7518 12.488C67.4798 12.408 67.2158 12.336 66.9598 12.272C66.7038 12.208 66.4638 12.176 66.2398 12.176C65.3918 12.176 64.7278 12.392 64.2478 12.824C63.7838 13.256 63.4958 13.8 63.3838 14.456V23H61.1758V10.4H62.7118L63.1438 12.08H63.3598C63.7278 11.456 64.1518 10.976 64.6318 10.64C65.1278 10.288 65.7438 10.112 66.4798 10.112C66.7038 10.112 66.9678 10.136 67.2718 10.184C67.5758 10.216 67.8798 10.28 68.1838 10.376L67.7518 12.488Z" fill="white"/>
</svg>
