<svg width="81" height="31" viewBox="0 0 81 31" fill="none" xmlns="http://www.w3.org/2000/svg">
<path d="M0 20.6667C0 9.25278 9.25278 0 20.6667 0H70.6667C76.3736 0 81 4.62639 81 10.3333V10.3333C81 21.7472 71.7472 31 60.3333 31H10.3333C4.62639 31 0 26.3736 0 20.6667V20.6667Z" fill="#114B5F"/>
<path d="M22.448 6.46H25.4L27.872 23.5H24.464L23.936 19.252H18.44L16.136 23.5H12.728L22.448 6.46ZM23.864 16.924L23.12 10.228L19.472 16.924H23.864ZM32.2767 10.924H35.1808L34.6768 13.252C35.2847 12.452 36.0208 11.828 36.8848 11.38C37.7648 10.932 38.6607 10.708 39.5728 10.708C40.5648 10.708 41.2848 10.956 41.7328 11.452C42.1808 11.932 42.4208 12.572 42.4528 13.372C43.1248 12.508 43.8848 11.852 44.7328 11.404C45.5808 10.94 46.4608 10.708 47.3728 10.708C47.9168 10.708 48.3648 10.788 48.7168 10.948C49.0848 11.092 49.3728 11.3 49.5808 11.572C49.8048 11.828 49.9568 12.132 50.0368 12.484C50.1328 12.836 50.1808 13.22 50.1808 13.636C50.1808 13.892 50.1648 14.188 50.1328 14.524C50.1008 14.844 50.0368 15.22 49.9408 15.652L48.2608 23.5H45.0448L46.5328 16.444C46.5808 16.204 46.6208 15.98 46.6528 15.772C46.6848 15.548 46.7007 15.348 46.7007 15.172C46.7007 14.612 46.5807 14.204 46.3408 13.948C46.1168 13.676 45.8048 13.54 45.4048 13.54C44.8128 13.54 44.2048 13.788 43.5807 14.284C42.9728 14.78 42.4768 15.412 42.0928 16.18L40.5568 23.5H37.3408L38.8288 16.444C38.9248 15.948 38.9727 15.516 38.9727 15.148C38.9727 14.588 38.8607 14.18 38.6367 13.924C38.4128 13.668 38.0928 13.54 37.6768 13.54C37.3888 13.54 37.0928 13.604 36.7888 13.732C36.4848 13.86 36.1808 14.044 35.8767 14.284C35.5887 14.508 35.3167 14.78 35.0607 15.1C34.8048 15.42 34.5808 15.772 34.3887 16.156L32.8288 23.5H29.6127L32.2767 10.924ZM53.9152 10.924H57.1312L54.4672 23.5H51.2512L53.9152 10.924ZM54.9712 5.98H58.1872L57.5152 9.172H54.2992L54.9712 5.98ZM60.2255 10.924H63.1775L62.6015 13.612C63.2095 12.748 63.8895 12.068 64.6415 11.572C65.3935 11.06 66.1455 10.804 66.8975 10.804C67.0575 10.804 67.1775 10.812 67.2575 10.828C67.3375 10.828 67.4095 10.836 67.4735 10.852L66.8735 13.708C65.9615 13.724 65.0975 13.916 64.2815 14.284C63.4815 14.636 62.8495 15.172 62.3855 15.892L60.7775 23.5H57.5615L60.2255 10.924Z" fill="white"/>
</svg>
