<svg width="81" height="31" viewBox="0 0 81 31" fill="none" xmlns="http://www.w3.org/2000/svg">
<path d="M0 20.6667C0 9.25278 9.25278 0 20.6667 0H70.6667C76.3736 0 81 4.62639 81 10.3333V10.3333C81 21.7472 71.7472 31 60.3333 31H10.3333C4.62639 31 0 26.3736 0 20.6667V20.6667Z" fill="#D62839"/>
<path d="M18.36 25L20.352 4.384H27.336L29.304 25H25.392L25.104 21.664H22.608L22.368 25H18.36ZM22.92 18.376H24.792L23.88 7.888H23.688L22.92 18.376ZM30.7284 7.432H34.8324V9.472C35.0244 8.72 35.3524 8.16 35.8164 7.792C36.2804 7.424 36.9364 7.24 37.7844 7.24C38.4724 7.24 39.0644 7.4 39.5604 7.72C40.0724 8.024 40.4324 8.448 40.6404 8.992C40.9924 8.384 41.3844 7.944 41.8164 7.672C42.2484 7.384 42.8484 7.24 43.6164 7.24C44.9924 7.24 45.9444 7.664 46.4724 8.512C47.0164 9.344 47.2884 10.56 47.2884 12.16L47.2404 25H43.0164V12.088C43.0164 10.952 42.7284 10.384 42.1524 10.384C41.7524 10.384 41.4644 10.584 41.2884 10.984C41.1124 11.368 41.0244 11.832 41.0244 12.376V25H36.8244V12.088C36.8244 11.592 36.7684 11.192 36.6564 10.888C36.5604 10.584 36.3444 10.432 36.0084 10.432C35.5764 10.432 35.2724 10.648 35.0964 11.08C34.9204 11.496 34.8324 12 34.8324 12.592V25H30.7284V7.432ZM49.1319 6.256V3.328H53.3319V6.256H49.1319ZM49.1319 25V7.432H53.3319V25H49.1319ZM55.2319 7.432H59.4319V9.376C59.6399 8.688 59.9999 8.16 60.5119 7.792C61.0399 7.408 61.6879 7.216 62.4559 7.216V10.72C61.8639 10.72 61.2079 10.808 60.4879 10.984C59.7839 11.144 59.4319 11.336 59.4319 11.56V25H55.2319V7.432Z" fill="white"/>
</svg>
