<svg width="81" height="31" viewBox="0 0 81 31" fill="none" xmlns="http://www.w3.org/2000/svg">
<path d="M0 20.6667C0 9.25278 9.25278 0 20.6667 0H70.6667C76.3736 0 81 4.62639 81 10.3333V10.3333C81 21.7472 71.7472 31 60.3333 31H10.3333C4.62639 31 0 26.3736 0 20.6667V20.6667Z" fill="#FF595E"/>
<path d="M20.144 23.38L23.12 6.892C23.136 6.828 23.176 6.796 23.24 6.796H26.72C26.784 6.796 26.824 6.828 26.84 6.892L29.696 23.38C29.712 23.46 29.68 23.5 29.6 23.5H26.936C26.872 23.5 26.832 23.46 26.816 23.38L26.552 21.628H23.288L23.024 23.38C23.008 23.46 22.968 23.5 22.904 23.5H20.24C20.176 23.5 20.144 23.46 20.144 23.38ZM23.768 19.06H26.072L25.088 12.316L24.944 11.428L24.848 12.316L23.768 19.06ZM31.5382 23.5C31.4742 23.5 31.4422 23.46 31.4422 23.38L31.4902 6.892C31.4902 6.828 31.5222 6.796 31.5862 6.796H34.5142C34.5782 6.796 34.6342 6.828 34.6822 6.892L36.8662 10.06L39.0502 6.892C39.0982 6.828 39.1542 6.796 39.2182 6.796H42.1702C42.2342 6.796 42.2662 6.828 42.2662 6.892L42.3142 23.38C42.3142 23.46 42.2822 23.5 42.2182 23.5H39.5062C39.4422 23.5 39.4102 23.46 39.4102 23.38L39.3862 11.14L36.8662 14.788L34.3702 11.14L34.3462 23.38C34.3462 23.46 34.3142 23.5 34.2502 23.5H31.5382ZM44.6928 23.5C44.6128 23.5 44.5728 23.46 44.5728 23.38L44.5968 6.892C44.5968 6.828 44.6288 6.796 44.6928 6.796H47.3808C47.4448 6.796 47.4768 6.828 47.4768 6.892L47.5008 23.38C47.5008 23.46 47.4688 23.5 47.4048 23.5H44.6928ZM49.9479 23.5C49.8839 23.5 49.8519 23.46 49.8519 23.38L49.8999 6.892C49.8999 6.828 49.9319 6.796 49.9959 6.796H54.8439C55.7079 6.796 56.4999 7.012 57.2199 7.444C57.9559 7.86 58.5399 8.428 58.9719 9.148C59.4039 9.852 59.6199 10.652 59.6199 11.548C59.6199 12.14 59.5319 12.676 59.3559 13.156C59.1799 13.62 58.9719 14.02 58.7319 14.356C58.4919 14.676 58.2759 14.916 58.0839 15.076C58.9479 16.036 59.3799 17.164 59.3799 18.46L59.4039 23.38C59.4039 23.46 59.3639 23.5 59.2839 23.5H56.5719C56.5079 23.5 56.4759 23.476 56.4759 23.428V18.46C56.4759 17.884 56.2679 17.388 55.8519 16.972C55.4519 16.54 54.9559 16.324 54.3639 16.324H52.7799L52.7559 23.38C52.7559 23.46 52.7239 23.5 52.6599 23.5H49.9479ZM52.7799 13.444H54.8439C55.3399 13.444 55.7799 13.26 56.1639 12.892C56.5479 12.524 56.7399 12.076 56.7399 11.548C56.7399 11.036 56.5479 10.596 56.1639 10.228C55.7959 9.86 55.3559 9.676 54.8439 9.676H52.7799V13.444Z" fill="white"/>
</svg>
