<svg width="81" height="31" viewBox="0 0 81 31" fill="none" xmlns="http://www.w3.org/2000/svg">
<path d="M0 20.6667C0 9.25278 9.25278 0 20.6667 0H70.6667C76.3736 0 81 4.62639 81 10.3333V10.3333C81 21.7472 71.7472 31 60.3333 31H10.3333C4.62639 31 0 26.3736 0 20.6667V20.6667Z" fill="#407899"/>
<path d="M20.752 25.5H5.008L12.88 8.436L20.752 25.5ZM6.4 24.612H19.36L12.88 10.548L6.4 24.612ZM25.0296 25.5H24.1416V8.796H25.1016L30.9336 19.092L36.7416 8.796H37.6296V25.5H36.7416V10.572L31.3416 20.1H30.5016L25.0296 10.452V25.5ZM54.3152 8.796V9.684H49.3232V24.612H54.3152V25.5H43.4912V24.612H48.4593V9.684H43.4912V8.796H54.3152ZM70.5209 9.348C71.4809 9.796 72.2329 10.46 72.7769 11.34C73.3369 12.22 73.6169 13.196 73.6169 14.268C73.6169 15.516 73.2329 16.636 72.4649 17.628C71.7129 18.604 70.7449 19.252 69.5609 19.572L73.8089 25.5H72.7529L68.6489 19.74L67.8809 19.764H61.8569V25.5H60.9689V8.796H67.3289C68.0329 8.796 68.6329 8.844 69.1289 8.94C69.6409 9.02 70.1049 9.156 70.5209 9.348ZM68.1209 18.876C68.9529 18.876 69.7209 18.668 70.4249 18.252C71.1289 17.836 71.6889 17.276 72.1049 16.572C72.5209 15.868 72.7289 15.1 72.7289 14.268C72.7289 13.34 72.4809 12.5 71.9849 11.748C71.5049 10.996 70.8329 10.436 69.9689 10.068C69.3449 9.812 68.4649 9.684 67.3289 9.684H61.8569V18.876H68.1209Z" fill="white"/>
</svg>
