<svg width="81" height="31" viewBox="0 0 81 31" fill="none" xmlns="http://www.w3.org/2000/svg">
<path d="M0 20.6667C0 9.25278 9.25278 0 20.6667 0H70.6667C76.3736 0 81 4.62639 81 10.3333V10.3333C81 21.7472 71.7472 31 60.3333 31H10.3333C4.62639 31 0 26.3736 0 20.6667V20.6667Z" fill="#4ECDC4"/>
<path d="M15.584 23.776C15.552 24.24 15.304 24.56 14.84 24.736C14.392 24.912 13.576 25 12.392 25C11.208 25 10.216 24.896 9.416 24.688C8.632 24.464 8.24 24.184 8.24 23.848C8.24 23.464 8.952 21.016 10.376 16.504C11.8 11.976 12.616 9.368 12.824 8.68C12.904 8.472 13.544 8.304 14.744 8.176C15.96 8.032 17.256 7.96 18.632 7.96C20.024 7.96 20.792 8.2 20.936 8.68C23.96 18.728 25.472 23.832 25.472 23.992C25.472 24.152 25.376 24.312 25.184 24.472C24.736 24.824 23.848 25 22.52 25C19.688 25 18.24 24.664 18.176 23.992L18.008 22.432H15.704L15.584 23.776ZM17.504 17.872L17.144 13.552H16.616L16.208 17.872H17.504ZM48.6628 17.08V24.424C48.6628 24.6 48.2068 24.744 47.2948 24.856C46.3988 24.952 45.4628 25 44.4868 25C43.5268 25 42.9028 24.96 42.6147 24.88C42.3268 24.784 42.1828 24.632 42.1828 24.424V17.776C42.1828 15.488 41.9508 14.344 41.4868 14.344C41.3748 14.344 41.2628 14.392 41.1508 14.488C41.0388 14.584 40.9828 14.752 40.9828 14.992V24.424C40.9828 24.6 40.5268 24.744 39.6147 24.856C38.7188 24.952 37.7828 25 36.8068 25C35.8308 25 35.1988 24.96 34.9108 24.88C34.6388 24.784 34.5027 24.632 34.5027 24.424V17.776C34.5027 16 34.3907 14.936 34.1667 14.584C34.0547 14.424 33.9107 14.344 33.7347 14.344C33.4307 14.344 33.2787 14.56 33.2787 14.992V24.424C33.2787 24.6 32.8227 24.744 31.9108 24.856C30.9988 24.952 30.0548 25 29.0788 25C28.1187 25 27.4947 24.96 27.2067 24.88C26.9347 24.784 26.7987 24.632 26.7987 24.424V12.592C26.7987 12.256 27.2547 11.92 28.1667 11.584C29.0947 11.248 30.0707 11.08 31.0948 11.08C32.1188 11.08 32.6948 11.376 32.8228 11.968L33.0388 13.024H33.2068C33.6708 12.112 34.4388 11.464 35.5108 11.08C35.9588 10.936 36.5348 10.864 37.2388 10.864C38.6468 10.864 39.6708 11.584 40.3108 13.024C40.5188 12.544 41.0388 12.064 41.8708 11.584C42.7028 11.104 43.6228 10.864 44.6308 10.864C46.2148 10.864 47.2788 11.36 47.8228 12.352C48.3828 13.328 48.6628 14.904 48.6628 17.08ZM57.1934 12.592V24.424C57.1934 24.6 56.7294 24.744 55.8014 24.856C54.8894 24.952 53.9454 25 52.9694 25C52.0094 25 51.3854 24.96 51.0974 24.88C50.8254 24.784 50.6894 24.632 50.6894 24.424V13.024C50.6894 12.672 51.1374 12.328 52.0334 11.992C52.9454 11.64 53.9374 11.464 55.0094 11.464C56.4654 11.464 57.1934 11.84 57.1934 12.592ZM53.9294 6.28C54.9854 6.28 55.8094 6.44 56.4014 6.76C57.0094 7.064 57.3134 7.624 57.3134 8.44C57.3134 9.88 56.1934 10.6 53.9534 10.6C51.7134 10.6 50.5934 9.88 50.5934 8.44C50.5934 7 51.7054 6.28 53.9294 6.28ZM65.7041 17.416V24.424C65.7041 24.6 65.2481 24.744 64.3361 24.856C63.4401 24.952 62.5041 25 61.5281 25C60.5681 25 59.9441 24.96 59.6561 24.88C59.3681 24.784 59.2241 24.632 59.2241 24.424V12.592C59.2241 12.288 59.6641 11.96 60.5441 11.608C61.4401 11.256 62.4081 11.08 63.4481 11.08C64.5041 11.08 65.0961 11.368 65.2241 11.944L65.4641 13.048H65.6321C65.8561 12.44 66.3921 11.928 67.2401 11.512C68.0881 11.08 68.9361 10.864 69.7841 10.864C70.6321 10.864 71.2241 11 71.5601 11.272C71.9121 11.544 72.0881 11.896 72.0881 12.328C72.0881 12.744 72.0561 13.28 71.9921 13.936C71.9281 14.592 71.7681 15.304 71.5121 16.072C71.2721 16.84 70.9521 17.224 70.5521 17.224C70.3921 17.224 69.8881 17.104 69.0401 16.864C68.1921 16.624 67.4881 16.504 66.9281 16.504C66.3841 16.504 66.0401 16.584 65.8961 16.744C65.7681 16.904 65.7041 17.128 65.7041 17.416Z" fill="white"/>
</svg>
