<svg width="81" height="31" viewBox="0 0 81 31" fill="none" xmlns="http://www.w3.org/2000/svg">
<path d="M0 20.6667C0 9.25278 9.25278 0 20.6667 0H70.6667C76.3736 0 81 4.62639 81 10.3333V10.3333C81 21.7472 71.7472 31 60.3333 31H10.3333C4.62639 31 0 26.3736 0 20.6667V20.6667Z" fill="#2D728F"/>
<path d="M19.7 25.62C18.596 25.62 17.596 25.348 16.7 24.804C15.82 24.26 15.124 23.476 14.612 22.452C14.1 21.412 13.844 20.188 13.844 18.78C13.844 16.348 14.364 14.1 15.404 12.036C16.444 9.956 17.98 8.292 20.012 7.044C22.044 5.78 24.484 5.148 27.332 5.148C28.068 5.148 28.852 5.204 29.684 5.316C30.532 5.428 31.3 5.596 31.988 5.82C32.436 5.948 32.66 6.268 32.66 6.78C32.66 7.196 32.5 7.588 32.18 7.956C31.876 8.324 31.516 8.508 31.1 8.508C30.972 8.508 30.876 8.5 30.812 8.484C29.98 8.292 29.268 8.156 28.676 8.076C28.084 7.98 27.46 7.932 26.804 7.932C24.772 7.932 23.044 8.428 21.62 9.42C20.196 10.396 19.132 11.692 18.428 13.308C17.724 14.924 17.372 16.668 17.372 18.54C17.372 19.9 17.636 20.956 18.164 21.708C18.708 22.444 19.412 22.812 20.276 22.812C21.252 22.812 22.108 22.412 22.844 21.612C23.58 20.812 24.252 19.516 24.86 17.724C25.468 15.932 26.068 13.5 26.66 10.428C26.756 9.98 26.948 9.676 27.236 9.516C27.524 9.356 27.908 9.276 28.388 9.276C29.524 9.276 30.092 9.644 30.092 10.38C30.092 10.508 30.068 10.668 30.02 10.86C29.604 12.412 29.22 14.132 28.868 16.02C28.532 17.892 28.364 19.316 28.364 20.292C28.364 21.156 28.492 21.788 28.748 22.188C29.004 22.572 29.396 22.764 29.924 22.764C30.436 22.764 30.924 22.596 31.388 22.26C31.852 21.908 32.436 21.316 33.14 20.484C33.332 20.26 33.548 20.148 33.788 20.148C33.996 20.148 34.156 20.244 34.268 20.436C34.396 20.628 34.46 20.892 34.46 21.228C34.46 21.852 34.308 22.348 34.004 22.716C33.22 23.66 32.452 24.38 31.7 24.876C30.948 25.372 30.028 25.62 28.94 25.62C27.82 25.62 26.916 25.3 26.228 24.66C25.54 24.004 25.108 23.084 24.932 21.9C23.748 24.38 22.004 25.62 19.7 25.62ZM34.4632 25.62C33.8552 25.62 33.4232 25.3 33.1672 24.66C32.9272 24.02 32.8072 22.996 32.8072 21.588C32.8072 19.508 33.1032 17.532 33.6952 15.66C33.8392 15.196 34.0712 14.86 34.3912 14.652C34.7272 14.428 35.1912 14.316 35.7832 14.316C36.1032 14.316 36.3272 14.356 36.4552 14.436C36.5832 14.516 36.6472 14.668 36.6472 14.892C36.6472 15.148 36.5272 15.724 36.2872 16.62C36.1272 17.26 35.9992 17.82 35.9032 18.3C35.8072 18.764 35.7272 19.348 35.6632 20.052C36.0952 18.804 36.6072 17.748 37.1992 16.884C37.8072 16.02 38.4232 15.38 39.0472 14.964C39.6872 14.532 40.2872 14.316 40.8472 14.316C41.4072 14.316 41.7992 14.444 42.0232 14.7C42.2632 14.956 42.3832 15.348 42.3832 15.876C42.3832 16.388 42.2312 17.316 41.9272 18.66C41.7992 19.236 41.7112 19.668 41.6632 19.956C42.4632 17.988 43.3512 16.556 44.3272 15.66C45.3032 14.764 46.2152 14.316 47.0632 14.316C48.1032 14.316 48.6232 14.836 48.6232 15.876C48.6232 16.5 48.4472 17.628 48.0952 19.26C47.7912 20.652 47.6392 21.572 47.6392 22.02C47.6392 22.66 47.8712 22.98 48.3352 22.98C48.6552 22.98 49.0312 22.788 49.4632 22.404C49.9112 22.004 50.5032 21.364 51.2392 20.484C51.4312 20.26 51.6472 20.148 51.8872 20.148C52.0952 20.148 52.2552 20.244 52.3672 20.436C52.4952 20.628 52.5592 20.892 52.5592 21.228C52.5592 21.868 52.4072 22.364 52.1032 22.716C51.4152 23.564 50.6712 24.26 49.8712 24.804C49.0872 25.348 48.1912 25.62 47.1832 25.62C46.3672 25.62 45.7512 25.388 45.3352 24.924C44.9192 24.444 44.7112 23.756 44.7112 22.86C44.7112 22.412 44.8232 21.612 45.0472 20.46C45.2552 19.452 45.3592 18.756 45.3592 18.372C45.3592 18.116 45.2712 17.988 45.0952 17.988C44.8872 17.988 44.5912 18.26 44.2072 18.804C43.8232 19.332 43.4392 20.036 43.0552 20.916C42.6712 21.796 42.3592 22.724 42.1192 23.7C41.9432 24.468 41.7352 24.98 41.4952 25.236C41.2712 25.492 40.9032 25.62 40.3912 25.62C39.8632 25.62 39.4632 25.372 39.1912 24.876C38.9352 24.364 38.8072 23.748 38.8072 23.028C38.8072 22.42 38.8872 21.54 39.0472 20.388C39.1752 19.364 39.2392 18.692 39.2392 18.372C39.2392 18.116 39.1512 17.988 38.9752 17.988C38.7352 17.988 38.4312 18.276 38.0632 18.852C37.6952 19.428 37.3352 20.164 36.9832 21.06C36.6472 21.956 36.3752 22.836 36.1672 23.7C35.9912 24.452 35.7832 24.964 35.5432 25.236C35.3192 25.492 34.9592 25.62 34.4632 25.62ZM54.0026 12.732C53.3306 12.732 52.8266 12.58 52.4906 12.276C52.1546 11.956 51.9866 11.516 51.9866 10.956C51.9866 10.396 52.2026 9.932 52.6346 9.564C53.0826 9.18 53.6346 8.988 54.2906 8.988C54.8826 8.988 55.3626 9.132 55.7306 9.42C56.0986 9.708 56.2826 10.116 56.2826 10.644C56.2826 11.284 56.0746 11.796 55.6586 12.18C55.2426 12.548 54.6906 12.732 54.0026 12.732ZM53.8106 25.62C52.7706 25.62 52.0106 25.252 51.5306 24.516C51.0666 23.78 50.8346 22.804 50.8346 21.588C50.8346 20.868 50.9226 19.948 51.0986 18.828C51.2906 17.692 51.5306 16.636 51.8186 15.66C51.9626 15.148 52.1546 14.796 52.3946 14.604C52.6346 14.412 53.0186 14.316 53.5466 14.316C54.3626 14.316 54.7706 14.588 54.7706 15.132C54.7706 15.532 54.6186 16.46 54.3146 17.916C53.9306 19.676 53.7386 20.868 53.7386 21.492C53.7386 21.972 53.8026 22.34 53.9306 22.596C54.0586 22.852 54.2746 22.98 54.5786 22.98C54.8666 22.98 55.2266 22.78 55.6586 22.38C56.0906 21.98 56.6666 21.348 57.3866 20.484C57.5786 20.26 57.7946 20.148 58.0346 20.148C58.2426 20.148 58.4026 20.244 58.5146 20.436C58.6426 20.628 58.7066 20.892 58.7066 21.228C58.7066 21.868 58.5546 22.364 58.2506 22.716C56.6666 24.652 55.1866 25.62 53.8106 25.62ZM66.7008 17.604C67.0528 17.604 67.3488 17.732 67.5888 17.988C67.8448 18.228 67.9728 18.532 67.9728 18.9C67.9728 19.108 67.9248 19.332 67.8288 19.572C67.5728 20.164 67.2128 20.66 66.7488 21.06C66.2848 21.46 65.7728 21.66 65.2128 21.66C64.7648 21.66 64.3808 21.5 64.0608 21.18C63.7568 20.86 63.6048 20.428 63.6048 19.884C63.6048 19.58 63.6208 19.252 63.6528 18.9C63.6848 18.644 63.7008 18.468 63.7008 18.372C63.7008 18.244 63.6688 18.148 63.6048 18.084C63.5568 18.02 63.4928 17.988 63.4128 17.988C63.1888 17.988 62.8848 18.26 62.5008 18.804C62.1168 19.332 61.7328 20.036 61.3488 20.916C60.9648 21.796 60.6528 22.724 60.4128 23.7C60.2368 24.468 60.0368 24.98 59.8128 25.236C59.5888 25.492 59.2208 25.62 58.7088 25.62C58.1008 25.62 57.6688 25.3 57.4128 24.66C57.1728 24.02 57.0528 22.996 57.0528 21.588C57.0528 19.508 57.3488 17.532 57.9408 15.66C58.0848 15.196 58.3168 14.86 58.6368 14.652C58.9728 14.428 59.4368 14.316 60.0288 14.316C60.3488 14.316 60.5728 14.356 60.7008 14.436C60.8288 14.516 60.8928 14.668 60.8928 14.892C60.8928 15.148 60.7728 15.724 60.5328 16.62C60.3728 17.26 60.2448 17.82 60.1488 18.3C60.0528 18.78 59.9728 19.372 59.9088 20.076C60.4368 18.7 61.0288 17.58 61.6848 16.716C62.3408 15.852 62.9808 15.236 63.6048 14.868C64.2288 14.5 64.7968 14.316 65.3088 14.316C65.7728 14.316 66.1248 14.452 66.3648 14.724C66.6208 14.98 66.7488 15.364 66.7488 15.876C66.7488 16.18 66.6608 16.756 66.4848 17.604H66.7008Z" fill="white"/>
</svg>
