<svg width="81" height="31" viewBox="0 0 81 31" fill="none" xmlns="http://www.w3.org/2000/svg">
<path d="M0 20.6667C0 9.25278 9.25278 0 20.6667 0H70.6667C76.3736 0 81 4.62639 81 10.3333V10.3333C81 21.7472 71.7472 31 60.3333 31H10.3333C4.62639 31 0 26.3736 0 20.6667V20.6667Z" fill="#0081AF"/>
<path d="M27.3672 13.4219H28.0234C28.2891 13.4219 28.5391 13.4453 28.7734 13.4922C29.0234 13.5391 29.1484 13.7109 29.1484 14.0078C29.2578 14.6328 28.8906 14.9375 28.0469 14.9219C27.8125 14.9062 27.5938 14.8906 27.3906 14.875C27.2031 14.8594 27.0469 14.8594 26.9219 14.875C26.7969 14.875 26.7422 14.9141 26.7578 14.9922C26.9141 15.4453 27.0781 15.9531 27.25 16.5156C27.4375 17.0781 27.6406 17.6406 27.8594 18.2031C28.4219 19.5938 28.9531 20.5938 29.4531 21.2031C29.1875 21.5312 28.875 21.8047 28.5156 22.0234C28.1719 22.2422 27.9844 22.3516 27.9531 22.3516C27.9375 22.3516 27.9219 22.3438 27.9062 22.3281L24.6016 15.3672L18.2031 16.9375L17.9688 17.9219C17.5156 19.7188 17.0078 20.9688 16.4453 21.6719C16.3516 21.8281 16.1562 21.8438 15.8594 21.7188C15.3594 21.5312 15.1094 21.375 15.1094 21.25C15.1094 21.2188 15.2734 20.7656 15.6016 19.8906C15.9297 19.0156 16.2578 18.1328 16.5859 17.2422C16.9297 16.3359 17.2812 15.3906 17.6406 14.4062C18.0156 13.4219 18.3672 12.4844 18.6953 11.5938C19.0234 10.7031 19.3203 9.90625 19.5859 9.20312C19.8516 8.48438 20.0391 7.96875 20.1484 7.65625C20.2578 7.32812 20.3281 7.04688 20.3594 6.8125C20.4062 6.5625 20.4688 6.35156 20.5469 6.17969C20.7031 5.82031 21.0938 5.64062 21.7188 5.64062C22.3906 6.01562 22.9062 6.50781 23.2656 7.11719C23.6406 7.71094 23.9531 8.35156 24.2031 9.03906C24.4688 9.72656 24.7266 10.4219 24.9766 11.125C25.2266 11.8281 25.5625 12.4688 25.9844 13.0469C26.125 13.2656 26.3359 13.3828 26.6172 13.3984C26.8984 13.4141 27.1484 13.4219 27.3672 13.4219ZM21.5078 8.35938C21.3828 9.3125 21.1016 10.2891 20.6641 11.2891C20.2266 12.2891 19.875 13.0703 19.6094 13.6328C19.3438 14.1797 19.1172 14.6875 18.9297 15.1562C19.9922 15.1562 21.2969 14.8438 22.8438 14.2188C23.2344 14.0469 23.6094 13.8906 23.9688 13.75C23.2344 10.6094 22.4141 8.8125 21.5078 8.35938ZM32.6931 21.625C32.0525 21.8906 31.6228 22.0234 31.4041 22.0234C31.2009 22.0234 31.0603 22 30.9822 21.9531C30.9041 21.9062 30.8181 21.7969 30.7244 21.625C30.7244 21.1094 30.74 20.4609 30.7712 19.6797C30.8181 18.8984 30.8572 18.0625 30.8884 17.1719C30.9197 16.2812 30.9353 15.3828 30.9353 14.4766C30.9353 13.5703 30.8884 12.7422 30.7947 11.9922C30.7947 11.4922 31.1306 11.2422 31.8025 11.2422C31.9587 11.2422 32.0759 11.5234 32.1541 12.0859C32.2478 12.6484 32.3103 13.0859 32.3416 13.3984C32.3884 13.7109 32.4275 13.9375 32.4587 14.0781C32.865 13.3438 33.6697 12.7656 34.8728 12.3438C35.5134 12.1406 36.115 12.0391 36.6775 12.0391C37.24 12.0391 37.7322 12.1094 38.1541 12.25C38.5916 12.375 38.9587 12.6172 39.2556 12.9766C39.5681 13.3203 39.7244 13.7812 39.7244 14.3594C40.1306 13.5938 41.0447 12.9062 42.4666 12.2969C43.7634 11.7188 44.9275 11.4297 45.9587 11.4297C47.4431 11.4297 48.1697 11.9922 48.1384 13.1172L48.6306 21.8359C48.6306 21.9141 48.4041 21.9688 47.9509 22C47.0759 22.0625 46.6384 21.9844 46.6384 21.7656C46.6228 21.4531 46.615 21.1406 46.615 20.8281L46.7322 17.0547C46.7322 15.2891 46.5603 13.8906 46.2166 12.8594C45.1853 12.9375 44.3884 13.1094 43.8259 13.375C43.2791 13.625 42.7947 13.9453 42.3728 14.3359C41.9509 14.7109 41.5759 15.2188 41.2478 15.8594C40.5134 17.2969 40.1462 19.2031 40.1462 21.5781C40.0525 21.9062 39.7478 22.0703 39.2322 22.0703C38.8884 22.0703 38.6072 22.0156 38.3884 21.9062C38.1697 21.7812 38.0837 21.6719 38.1306 21.5781C38.4275 19.9219 38.5759 18.6328 38.5759 17.7109C38.5759 16.9766 38.4978 16.2812 38.3416 15.625C38.2009 14.9531 38.0212 14.1875 37.8025 13.3281C35.5525 13.3281 34.0369 14.2266 33.2556 16.0234C32.9119 16.8203 32.7166 17.5703 32.6697 18.2734C32.6384 18.9609 32.6228 19.5547 32.6228 20.0547C32.6228 20.5391 32.6462 21.0625 32.6931 21.625ZM51.7769 10.9844C51.98 13.9062 52.1519 17.2891 52.2925 21.1328C52.1987 21.6172 51.8237 21.8594 51.1675 21.8594C50.9956 21.8594 50.8159 21.8281 50.6284 21.7656C50.4566 21.6875 50.3472 21.5859 50.3003 21.4609V10.9844H51.7769ZM49.5972 7.79688C49.5972 7.25 49.9175 6.97656 50.5581 6.97656C50.98 6.97656 51.3237 7.07031 51.5894 7.25781C51.6362 7.42969 51.6597 7.60156 51.6597 7.77344C51.6597 7.92969 51.5972 8.08594 51.4722 8.24219C51.3472 8.39844 51.1597 8.47656 50.9097 8.47656C50.6597 8.47656 50.4097 8.42188 50.1597 8.3125C49.9097 8.1875 49.7222 8.01562 49.5972 7.79688ZM65.0481 13.4453C64.3919 12.9766 63.5481 12.7422 62.5169 12.7422C61.5481 12.7422 60.6497 12.9219 59.8216 13.2812C58.2591 13.9375 57.1888 14.7812 56.6106 15.8125C56.3606 16.2812 56.2356 16.7812 56.2356 17.3125C56.2356 17.4062 56.2356 17.6719 56.2356 18.1094C56.2356 18.5312 56.3138 19.1094 56.47 19.8438C56.6263 20.5625 56.7044 21.2969 56.7044 22.0469C56.3763 22.0625 56.1106 22.1016 55.9075 22.1641C55.7044 22.2266 55.5325 22.2578 55.3919 22.2578C55.2513 22.2578 55.1263 22.1953 55.0169 22.0703C54.9231 21.9453 54.8138 21.7031 54.6888 21.3438C54.6731 21.25 54.6419 20.9844 54.595 20.5469C54.5481 20.1094 54.4856 19.5781 54.4075 18.9531C54.345 18.3281 54.2669 17.6484 54.1731 16.9141C54.095 16.1641 54.0169 15.4297 53.9388 14.7109C53.7669 13.1484 53.6341 12 53.5403 11.2656C53.5403 10.8906 53.8138 10.7031 54.3606 10.7031C54.6888 10.7031 54.9466 10.8438 55.1341 11.125C55.3216 11.3906 55.47 11.7031 55.5794 12.0625C55.6888 12.4062 55.7591 12.75 55.7903 13.0938C55.8372 13.4375 55.8763 13.6797 55.9075 13.8203C57.97 11.9766 60.5325 11.0547 63.595 11.0547C63.9388 11.0547 64.2981 11.0625 64.6731 11.0781C64.7669 11.0625 64.8841 11.0547 65.0247 11.0547C65.1653 11.0547 65.3059 11.1484 65.4466 11.3359C65.6184 11.5547 65.7044 11.8203 65.7044 12.1328C65.7044 12.9141 65.4856 13.3516 65.0481 13.4453Z" fill="white"/>
</svg>
