<svg width="81" height="31" viewBox="0 0 81 31" fill="none" xmlns="http://www.w3.org/2000/svg">
<path d="M0 20.6667C0 9.25278 9.25278 0 20.6667 0H70.6667C76.3736 0 81 4.62639 81 10.3333V10.3333C81 21.7472 71.7472 31 60.3333 31H10.3333C4.62639 31 0 26.3736 0 20.6667V20.6667Z" fill="#886176"/>
<path d="M12.2852 23.1445C12.3867 22.9414 12.4922 22.7148 12.6016 22.4648C12.7109 22.207 12.8125 21.9297 12.9062 21.6328L13.2227 20.8594C13.082 20.6484 12.9375 20.4219 12.7891 20.1797C12.6484 19.9297 12.5195 19.6758 12.4023 19.418C12.2852 19.1602 12.1875 18.9023 12.1094 18.6445C12.0391 18.3867 12.0039 18.1367 12.0039 17.8945C12.0039 17.8789 12.0625 17.8672 12.1797 17.8594C12.3047 17.8438 12.457 17.832 12.6367 17.8242C12.8242 17.8164 13.0234 17.8125 13.2344 17.8125C13.4531 17.8047 13.6523 17.8008 13.832 17.8008C14.0195 17.793 14.1719 17.7891 14.2891 17.7891C14.4141 17.7812 14.4766 17.7773 14.4766 17.7773C14.6562 17.3086 14.832 16.8633 15.0039 16.4414C15.1758 16.0195 15.3477 15.5938 15.5195 15.1641C15.6914 14.7344 15.8633 14.2969 16.0352 13.8516C16.207 13.3984 16.3789 12.9141 16.5508 12.3984C16.8789 11.4297 17.1992 10.5781 17.5117 9.84375C17.8242 9.10938 18.1172 8.42578 18.3906 7.79297C18.4219 7.71484 18.4727 7.64453 18.543 7.58203C18.6211 7.51172 18.7031 7.45312 18.7891 7.40625C18.875 7.35938 18.957 7.32031 19.0352 7.28906C19.1211 7.25781 19.1875 7.23438 19.2344 7.21875C19.2656 7.21094 19.3828 7.17578 19.5859 7.11328C19.7969 7.05078 20.0352 6.98438 20.3008 6.91406C20.5664 6.84375 20.8281 6.78125 21.0859 6.72656C21.3516 6.67188 21.5625 6.64453 21.7188 6.64453H21.9297C22.0547 6.64453 22.1719 6.67578 22.2812 6.73828C22.3984 6.79297 22.4766 6.90625 22.5156 7.07812C22.8906 8.03906 23.2891 9.08984 23.7109 10.2305C24.1406 11.3633 24.5586 12.6133 24.9648 13.9805C25.1836 14.7148 25.3984 15.4102 25.6094 16.0664C25.8203 16.7227 26.0312 17.3633 26.2422 17.9883C26.4531 18.6133 26.6641 19.2383 26.875 19.8633C27.0938 20.4883 27.3164 21.1328 27.543 21.7969C27.6133 22.0781 27.6836 22.3008 27.7539 22.4648C27.832 22.6289 27.9023 22.7578 27.9648 22.8516C28.0273 22.9453 28.0781 23.0156 28.1172 23.0625C28.1562 23.1016 28.1758 23.1445 28.1758 23.1914C28.1758 23.2383 28.1016 23.2852 27.9531 23.332L25.4336 24.1523C25.2461 24.2227 25.0547 24.293 24.8594 24.3633C24.6641 24.4336 24.4805 24.4961 24.3086 24.5508C24.1367 24.6055 23.9844 24.6484 23.8516 24.6797C23.7266 24.7188 23.6367 24.7383 23.582 24.7383H23.5117C23.4023 24.7383 23.3242 24.7031 23.2773 24.6328C23.2305 24.5703 23.1992 24.5078 23.1836 24.4453C23.1055 24.1875 23.0273 23.957 22.9492 23.7539C22.8711 23.543 22.793 23.3359 22.7148 23.1328C22.6445 22.9219 22.5703 22.6992 22.4922 22.4648C22.4219 22.2305 22.3516 21.9531 22.2812 21.6328C22.2656 21.5938 22.2227 21.5625 22.1523 21.5391C22.082 21.5078 21.9961 21.4844 21.8945 21.4688C21.8008 21.4531 21.6992 21.4453 21.5898 21.4453C21.4805 21.4375 21.3789 21.4336 21.2852 21.4336C20.9883 21.4336 20.7461 21.4375 20.5586 21.4453C20.3789 21.4453 20.2188 21.4492 20.0781 21.457C19.9375 21.457 19.8008 21.4609 19.668 21.4688C19.543 21.4688 19.3867 21.4688 19.1992 21.4688C18.9727 21.4688 18.7383 21.4688 18.4961 21.4688C18.2617 21.4609 18.0469 21.4531 17.8516 21.4453L17.1836 21.4219C16.9805 21.9844 16.7773 22.5117 16.5742 23.0039C16.3711 23.4961 16.1523 24.0039 15.918 24.5273C15.9023 24.5898 15.8633 24.6406 15.8008 24.6797C15.7461 24.7188 15.6875 24.7383 15.625 24.7383C15.5781 24.7383 15.5508 24.7344 15.543 24.7266C14.7852 24.4531 14.1484 24.1836 13.6328 23.918C13.1172 23.6523 12.668 23.3945 12.2852 23.1445ZM20.1836 12.6094C19.9961 13.3047 19.8086 13.9375 19.6211 14.5078C19.4414 15.0703 19.2734 15.5703 19.1172 16.0078C18.9688 16.4453 18.8398 16.8164 18.7305 17.1211C18.6211 17.418 18.543 17.6484 18.4961 17.8125V17.918C18.4961 17.9648 18.4922 17.9961 18.4844 18.0117H21.2969C21.2109 17.6289 21.1172 17.2422 21.0156 16.8516C20.9219 16.4609 20.8281 16.0508 20.7344 15.6211C20.6406 15.1914 20.5469 14.7305 20.4531 14.2383C20.3594 13.7461 20.2695 13.2031 20.1836 12.6094ZM46.4392 24.4219C46.3533 24.4453 46.24 24.4805 46.0994 24.5273C45.9587 24.582 45.822 24.6094 45.6892 24.6094C45.5798 24.6094 45.4822 24.582 45.3962 24.5273C45.3181 24.4727 45.2791 24.3789 45.2791 24.2461V24.1758C45.3337 23.6055 45.3806 23.1445 45.4197 22.793C45.4587 22.4336 45.49 22.1445 45.5134 21.9258C45.5369 21.707 45.5564 21.543 45.572 21.4336C45.5877 21.3164 45.6033 21.2109 45.6189 21.1172C45.6345 21.0156 45.6462 20.9062 45.6541 20.7891C45.6697 20.6719 45.6892 20.5078 45.7127 20.2969C45.7361 20.0781 45.7634 19.793 45.7947 19.4414C45.8337 19.082 45.8806 18.6133 45.9353 18.0352C45.9666 17.7227 45.9978 17.4141 46.0291 17.1094C46.0681 16.7969 46.0877 16.5117 46.0877 16.2539C46.0877 15.9258 46.0681 15.6289 46.0291 15.3633C45.9978 15.0898 45.9353 14.8594 45.8416 14.6719C45.7556 14.4766 45.6345 14.3242 45.4783 14.2148C45.322 14.1055 45.1228 14.0508 44.8806 14.0508C44.7322 14.0508 44.5369 14.082 44.2947 14.1445C44.0603 14.207 43.822 14.3203 43.5798 14.4844C43.3377 14.6406 43.1189 14.8516 42.9236 15.1172C42.7283 15.375 42.6033 15.7031 42.5486 16.1016V16.1484C42.4548 17.0391 42.3689 17.8125 42.2908 18.4688C42.2205 19.1172 42.158 19.6758 42.1033 20.1445C42.0486 20.6133 42.0017 21.0039 41.9627 21.3164C41.9314 21.6289 41.9041 21.8945 41.8806 22.1133C41.8572 22.3242 41.8377 22.5 41.822 22.6406C41.8142 22.7812 41.8103 22.9141 41.8103 23.0391C41.8103 23.1016 41.8103 23.1562 41.8103 23.2031C41.8181 23.2422 41.822 23.2773 41.822 23.3086C41.822 23.3711 41.7908 23.4258 41.7283 23.4727C41.6736 23.5117 41.5447 23.5625 41.3416 23.625L38.5877 24.4219C38.5017 24.4453 38.3884 24.4805 38.2478 24.5273C38.1072 24.582 37.9705 24.6094 37.8377 24.6094C37.7283 24.6094 37.6306 24.582 37.5447 24.5273C37.4666 24.4727 37.4275 24.3789 37.4275 24.2461V24.1758C37.4822 23.6055 37.5252 23.1445 37.5564 22.793C37.5955 22.4336 37.6267 22.1445 37.6502 21.9258C37.6814 21.707 37.7048 21.543 37.7205 21.4336C37.7361 21.3164 37.7478 21.2109 37.7556 21.1172C37.7712 21.0156 37.7869 20.9062 37.8025 20.7891C37.8181 20.6719 37.8337 20.5078 37.8494 20.2969C37.8728 20.0781 37.9002 19.793 37.9314 19.4414C37.9705 19.082 38.0173 18.6133 38.072 18.0352C38.1033 17.7227 38.1345 17.4141 38.1658 17.1094C38.2048 16.7969 38.2244 16.5117 38.2244 16.2539C38.2244 15.9258 38.2087 15.6289 38.1775 15.3633C38.1462 15.0898 38.0877 14.8594 38.0017 14.6719C37.9236 14.4766 37.8142 14.3242 37.6736 14.2148C37.533 14.1055 37.3533 14.0508 37.1345 14.0508C36.9783 14.0508 36.7634 14.0898 36.49 14.168C36.2244 14.2461 35.9548 14.375 35.6814 14.5547C35.4158 14.7344 35.1775 14.9727 34.9666 15.2695C34.7634 15.5586 34.6462 15.918 34.615 16.3477C34.5525 16.9258 34.5017 17.4023 34.4627 17.7773C34.4236 18.1445 34.3923 18.4492 34.3689 18.6914C34.3455 18.9258 34.3259 19.1172 34.3103 19.2656C34.3025 19.4062 34.2947 19.5391 34.2869 19.6641C34.2791 19.6953 34.2673 19.7852 34.2517 19.9336C34.2361 20.0742 34.2166 20.2461 34.1931 20.4492C34.1775 20.6445 34.158 20.8594 34.1345 21.0938C34.1189 21.3203 34.1033 21.5352 34.0877 21.7383C34.072 21.9336 34.0564 22.1055 34.0408 22.2539C34.033 22.3945 34.0291 22.4805 34.0291 22.5117V22.7227C34.0291 22.8008 34.0252 22.8672 34.0173 22.9219C34.0095 22.9766 33.9861 23.0273 33.947 23.0742C33.908 23.1211 33.8494 23.1641 33.7712 23.2031C33.7009 23.2422 33.5994 23.2852 33.4666 23.332L30.3962 24.4219C30.3103 24.4531 30.197 24.4922 30.0564 24.5391C29.9158 24.5859 29.7791 24.6094 29.6462 24.6094C29.5369 24.6094 29.4392 24.582 29.3533 24.5273C29.2752 24.4727 29.2361 24.3789 29.2361 24.2461L30.2908 12.293C30.3142 12.0352 30.3416 11.8594 30.3728 11.7656C30.4119 11.6641 30.5017 11.5977 30.6423 11.5664C31.3533 11.4258 32.0798 11.2852 32.822 11.1445C33.5642 10.9961 34.2908 10.8086 35.0017 10.582C35.0642 10.582 35.0994 10.5938 35.1072 10.6172C35.1228 10.6328 35.1306 10.6602 35.1306 10.6992L34.9783 12.4102C35.2673 12.2617 35.5916 12.1016 35.9509 11.9297C36.3103 11.75 36.6853 11.5859 37.0759 11.4375C37.4744 11.2891 37.8767 11.168 38.283 11.0742C38.697 10.9727 39.0994 10.9219 39.49 10.9219C40.0291 10.9219 40.5252 11.0469 40.9783 11.2969C41.4392 11.5391 41.8181 11.9453 42.115 12.5156C42.4666 12.2891 42.8377 12.0781 43.2283 11.8828C43.6267 11.6875 44.0291 11.5195 44.4353 11.3789C44.8494 11.2383 45.2634 11.1289 45.6775 11.0508C46.0916 10.9727 46.4939 10.9336 46.8845 10.9336C47.3767 10.9336 47.8416 11.0039 48.2791 11.1445C48.7166 11.2852 49.0955 11.5156 49.4158 11.8359C49.7439 12.1562 50.0017 12.5742 50.1892 13.0898C50.3767 13.5977 50.4705 14.2188 50.4705 14.9531C50.4705 15.1406 50.4666 15.3359 50.4587 15.5391C50.4509 15.7344 50.4353 15.9375 50.4119 16.1484L49.8728 21.1641C49.8337 21.4922 49.8103 21.7969 49.8025 22.0781C49.7947 22.3516 49.7908 22.6719 49.7908 23.0391C49.7908 23.1016 49.7908 23.1562 49.7908 23.2031C49.7986 23.2422 49.8025 23.2773 49.8025 23.3086C49.8025 23.3789 49.7712 23.4336 49.7087 23.4727C49.6541 23.5117 49.5252 23.5625 49.322 23.625L46.4392 24.4219ZM52.7847 19.0312C52.8862 17.9609 52.9878 16.9023 53.0894 15.8555C53.1909 14.8086 53.2808 13.7344 53.3589 12.6328C53.3745 12.375 53.398 12.1992 53.4292 12.1055C53.4683 12.0039 53.5581 11.9375 53.6987 11.9062C54.3628 11.7734 55.0581 11.6367 55.7847 11.4961C56.5112 11.3477 57.2144 11.1602 57.8941 10.9336C57.9175 10.9258 57.9527 10.9219 57.9995 10.9219C58.0855 10.9219 58.1284 10.9531 58.1284 11.0156L57.0737 22.4297C57.0503 22.6875 57.023 22.8672 56.9917 22.9688C56.9605 23.0625 56.8745 23.125 56.7339 23.1562C56.0698 23.3594 55.398 23.5859 54.7183 23.8359C54.0386 24.0859 53.3198 24.3398 52.562 24.5977C52.5386 24.6055 52.5034 24.6094 52.4566 24.6094C52.3706 24.6094 52.3277 24.5703 52.3277 24.4922C52.3277 24.4844 52.3355 24.3789 52.3511 24.1758C52.3667 23.9727 52.3862 23.7109 52.4097 23.3906C52.4409 23.0703 52.4722 22.7109 52.5034 22.3125C52.5347 21.9141 52.5659 21.5156 52.5972 21.1172C52.6362 20.7188 52.6714 20.3359 52.7027 19.9688C52.7339 19.6016 52.7612 19.2891 52.7847 19.0312ZM53.6636 9.67969C53.687 9.34375 53.7027 9.08594 53.7105 8.90625C53.7261 8.72656 53.7378 8.59375 53.7456 8.50781C53.7534 8.41406 53.7573 8.35547 53.7573 8.33203C53.7573 8.30859 53.7573 8.29297 53.7573 8.28516C53.7652 8.26953 53.7691 8.24609 53.7691 8.21484C53.7769 8.17578 53.7847 8.10156 53.7925 7.99219C53.8003 7.875 53.812 7.70703 53.8277 7.48828C53.8433 7.26953 53.8667 6.96875 53.898 6.58594C53.9136 6.32812 53.937 6.15234 53.9683 6.05859C54.0073 5.95703 54.0972 5.89062 54.2378 5.85938C54.9019 5.72656 55.5972 5.58984 56.3237 5.44922C57.0503 5.30078 57.7534 5.11328 58.4331 4.88672C58.4566 4.87891 58.4917 4.875 58.5386 4.875C58.562 4.92188 58.5933 4.95313 58.6323 4.96875L58.6675 4.99219L58.4097 8.20312C58.3862 8.46094 58.355 8.64062 58.3159 8.74219C58.2847 8.84375 58.2027 8.90625 58.0698 8.92969C57.4058 9.05469 56.7339 9.19141 56.0542 9.33984C55.3745 9.48828 54.6558 9.63672 53.898 9.78516C53.8745 9.79297 53.8394 9.79688 53.7925 9.79688C53.7066 9.79688 53.6636 9.75781 53.6636 9.67969ZM69.4778 14.4609C69.3138 14.4453 69.1302 14.4297 68.927 14.4141C68.7239 14.3906 68.5091 14.3789 68.2825 14.3789C67.9388 14.3789 67.5872 14.4102 67.2278 14.4727C66.8763 14.5273 66.5481 14.6406 66.2434 14.8125C65.9388 14.9844 65.677 15.2227 65.4583 15.5273C65.2395 15.8242 65.0989 16.2109 65.0364 16.6875C64.9817 17.2656 64.9348 17.7422 64.8958 18.1172C64.8645 18.4844 64.8411 18.7891 64.8255 19.0312C64.8098 19.2656 64.7942 19.457 64.7786 19.6055C64.7708 19.7461 64.763 19.8789 64.7552 20.0039C64.7552 20.0352 64.7473 20.1211 64.7317 20.2617C64.7239 20.4023 64.7083 20.5664 64.6848 20.7539C64.6614 20.9414 64.638 21.1445 64.6145 21.3633C64.5989 21.582 64.5794 21.7852 64.5559 21.9727C64.5325 22.1602 64.513 22.3242 64.4973 22.4648C64.4895 22.6055 64.4856 22.6914 64.4856 22.7227C64.4856 22.7852 64.4856 22.8398 64.4856 22.8867C64.4934 22.9258 64.4973 22.9648 64.4973 23.0039C64.4973 23.0664 64.4661 23.1211 64.4036 23.168C64.3489 23.207 64.22 23.2539 64.0169 23.3086L60.9114 24.4219C60.8255 24.4531 60.7122 24.4922 60.5716 24.5391C60.4309 24.5859 60.2942 24.6094 60.1614 24.6094C60.052 24.6094 59.9544 24.582 59.8684 24.5273C59.7903 24.4727 59.7513 24.3789 59.7513 24.2461L60.7591 12.6328C60.7825 12.375 60.8098 12.1992 60.8411 12.1055C60.8802 12.0039 60.97 11.9375 61.1106 11.9062C61.8216 11.7656 62.5559 11.625 63.3138 11.4844C64.0716 11.3359 64.8059 11.1484 65.5169 10.9219C65.5794 10.9219 65.6145 10.9336 65.6223 10.957C65.638 10.9727 65.6458 11 65.6458 11.0391C65.6458 11.0547 65.6419 11.0781 65.6341 11.1094C65.6341 11.1406 65.6223 11.2109 65.5989 11.3203C65.5833 11.4297 65.5559 11.5977 65.5169 11.8242C65.4856 12.043 65.4388 12.3516 65.3763 12.75C65.7356 12.4688 66.1302 12.2109 66.5598 11.9766C66.9973 11.7422 67.4348 11.543 67.8723 11.3789C68.3098 11.207 68.7317 11.0742 69.138 10.9805C69.5442 10.8789 69.8997 10.8281 70.2044 10.8281L69.4778 14.4609Z" fill="white"/>
</svg>
