<svg width="81" height="31" viewBox="0 0 81 31" fill="none" xmlns="http://www.w3.org/2000/svg">
<path d="M0 20.6667C0 9.25278 9.25278 0 20.6667 0H70.6667C76.3736 0 81 4.62639 81 10.3333V10.3333C81 21.7472 71.7472 31 60.3333 31H10.3333C4.62639 31 0 26.3736 0 20.6667V20.6667Z" fill="#F35B04"/>
<path d="M21.464 24.292C21.288 24.196 21.16 24.108 21.08 24.028C21.016 23.948 20.984 23.844 20.984 23.716C20.984 23.556 21.048 23.332 21.176 23.044C21.32 22.74 21.56 22.268 21.896 21.628C21.992 21.42 22.176 21.052 22.448 20.524C23.136 19.212 23.48 18.244 23.48 17.62C23.464 17.588 23.456 17.54 23.456 17.476C23.456 17.316 23.584 17.172 23.84 17.044C23.888 16.996 24.056 16.86 24.344 16.636C24.648 16.412 24.888 16.156 25.064 15.868C25.272 15.388 25.536 14.86 25.856 14.284C26.176 13.692 26.728 12.732 27.512 11.404C28.28 9.996 29.096 8.724 29.96 7.588C30.12 7.364 30.296 7.188 30.488 7.06C30.696 6.932 30.872 6.868 31.016 6.868C31.512 6.868 32.016 7.06 32.528 7.444C33.056 7.828 33.4 8.212 33.56 8.596C33.624 8.708 33.656 8.948 33.656 9.316C33.656 9.812 33.6 10.652 33.488 11.836C33.456 12.044 33.424 12.372 33.392 12.82C33.344 13.54 33.272 14.308 33.176 15.124C33 16.916 32.872 18.316 32.792 19.324C32.712 20.332 32.672 21.276 32.672 22.156C32.672 22.604 32.68 22.932 32.696 23.14V23.308L32.672 23.86C32.576 23.956 32.384 24.004 32.096 24.004C31.776 24.004 31.456 23.948 31.136 23.836C30.816 23.74 30.64 23.62 30.608 23.476C30.592 23.46 30.568 23.444 30.536 23.428C30.504 23.412 30.488 23.34 30.488 23.212L30.512 22.684L30.584 21.34L30.704 17.668L30.392 17.692C30.072 17.692 29.392 17.756 28.352 17.884C27.328 18.012 26.68 18.116 26.408 18.196C26.264 18.196 26.088 18.292 25.88 18.484C25.672 18.676 25.488 18.924 25.328 19.228C25.28 19.388 25.168 19.62 24.992 19.924C24.816 20.212 24.728 20.38 24.728 20.428C24.632 20.492 24.544 20.58 24.464 20.692C24.4 20.788 24.36 20.852 24.344 20.884C24.344 21.06 24.184 21.516 23.864 22.252C23.56 22.972 23.256 23.564 22.952 24.028L22.304 24.94L21.464 24.292ZM27.2 16.036C27.312 16.02 27.536 15.988 27.872 15.94C28.208 15.876 28.504 15.836 28.76 15.82C29.528 15.628 30.056 15.532 30.344 15.532C30.504 15.532 30.616 15.548 30.68 15.58C30.728 15.644 30.776 15.692 30.824 15.724C30.888 15.74 30.928 15.748 30.944 15.748C30.976 15.62 31.104 14.748 31.328 13.132C31.552 11.516 31.664 10.524 31.664 10.156C31.664 9.9 31.656 9.684 31.64 9.508C31.624 9.316 31.608 9.196 31.592 9.148C31.448 9.148 31.12 9.532 30.608 10.3C30.096 11.052 29.6 11.908 29.12 12.868C28.752 13.524 28.496 13.852 28.352 13.852C28.24 13.964 28 14.34 27.632 14.98C27.264 15.62 27.12 15.972 27.2 16.036ZM46.3938 22.948C46.1858 22.948 46.0258 22.916 45.9138 22.852C45.7858 22.804 45.6178 22.692 45.4098 22.516C45.2178 22.324 45.0418 22.06 44.8818 21.724C44.7378 21.372 44.6658 20.956 44.6658 20.476C44.6658 20.172 44.6818 19.908 44.7138 19.684C44.7618 19.444 44.7858 19.292 44.7858 19.228C44.7858 19.148 44.7618 19.108 44.7138 19.108C44.2978 19.108 43.3938 19.868 42.0018 21.388C41.9538 21.42 41.9138 21.46 41.8818 21.508C41.6898 21.652 41.5138 21.804 41.3538 21.964C41.1138 22.188 40.9138 22.356 40.7538 22.468C40.6098 22.564 40.4498 22.62 40.2738 22.636C40.1618 22.636 40.0418 22.588 39.9138 22.492L39.6498 22.276C39.5698 22.228 39.4978 22.14 39.4338 22.012C39.3698 21.884 39.3378 21.764 39.3378 21.652V21.58V21.532L39.8898 19.924C40.2898 19.044 40.4898 18.524 40.4898 18.364C40.4898 18.332 40.4818 18.316 40.4658 18.316C40.3218 18.3 40.1058 18.428 39.8178 18.7C39.5458 18.956 39.1538 19.364 38.6418 19.924L37.5618 21.052C37.4338 21.18 37.0898 21.564 36.5298 22.204C36.1778 22.636 35.9938 22.852 35.9778 22.852C35.6258 22.852 35.3058 22.716 35.0178 22.444C34.7458 22.172 34.6098 21.844 34.6098 21.46C34.6098 21.268 34.6418 21.012 34.7058 20.692C34.7698 20.372 34.8418 20.036 34.9218 19.684C34.9538 19.556 34.9858 19.412 35.0178 19.252C35.0658 19.092 35.1138 18.908 35.1618 18.7C35.1938 18.54 35.2258 18.364 35.2578 18.172C35.3058 17.98 35.3938 17.732 35.5218 17.428C35.6498 17.108 35.8338 16.668 36.0738 16.108C36.1378 15.9 36.1698 15.684 36.1698 15.46C36.1698 15.348 36.1618 15.244 36.1458 15.148C36.1298 15.036 36.1218 14.964 36.1218 14.932C36.1218 14.692 36.2338 14.492 36.4578 14.332C36.6978 14.156 36.9618 14.068 37.2498 14.068C37.6658 14.068 37.9778 14.22 38.1858 14.524C38.3938 14.812 38.4978 15.116 38.4978 15.436C38.4978 15.708 38.4338 15.972 38.3058 16.228L38.0418 16.876C37.9778 17.02 37.8578 17.284 37.6818 17.668C37.5218 18.036 37.4418 18.26 37.4418 18.34C37.4418 18.388 37.4578 18.412 37.4898 18.412H37.5138C37.5938 18.412 37.7218 18.324 37.8978 18.148C38.4098 17.668 39.0258 17.172 39.7458 16.66C40.4818 16.132 41.0098 15.82 41.3298 15.724C41.4578 15.724 41.6258 15.788 41.8338 15.916C42.0418 16.044 42.2258 16.22 42.3858 16.444C42.5458 16.652 42.6258 16.884 42.6258 17.14L42.6018 17.332C42.5858 17.396 42.5138 17.668 42.3858 18.148C42.2738 18.628 42.1858 18.908 42.1218 18.988C42.4258 18.636 42.9538 18.204 43.7058 17.692C44.4578 17.164 45.0098 16.892 45.3618 16.876C45.8898 16.876 46.2338 17.092 46.3938 17.524C46.5538 17.956 46.6658 18.588 46.7298 19.42C46.7938 20.204 46.8818 20.732 46.9938 21.004C47.0258 21.1 47.1378 21.18 47.3298 21.244C47.5218 21.308 47.6738 21.388 47.7858 21.484C47.9138 21.564 47.9778 21.732 47.9778 21.988C47.9778 22.34 47.8178 22.588 47.4978 22.732C47.1938 22.876 46.8258 22.948 46.3938 22.948ZM51.4659 13.468C51.3059 13.356 51.1779 13.212 51.0819 13.036C50.9859 12.86 50.9299 12.692 50.9139 12.532C50.8979 12.372 50.9139 12.276 50.9619 12.244C51.0579 12.132 51.1539 11.98 51.2499 11.788C51.3459 11.596 51.4179 11.46 51.4659 11.38C51.5939 11.092 51.6979 10.884 51.7779 10.756C51.8899 10.532 51.9939 10.412 52.0899 10.396C52.2179 10.332 52.3219 10.3 52.4019 10.3C52.6099 10.3 52.8339 10.372 53.0739 10.516C53.3299 10.66 53.5219 10.828 53.6499 11.02C53.7619 11.276 53.8179 11.5 53.8179 11.692C53.8179 12.076 53.6339 12.5 53.2659 12.964C53.1059 13.172 52.9139 13.332 52.6899 13.444C52.4659 13.556 52.2419 13.612 52.0179 13.612C51.7939 13.612 51.6099 13.564 51.4659 13.468ZM48.8739 23.092C48.6499 22.868 48.5379 22.468 48.5379 21.892C48.5379 21.588 48.5779 21.356 48.6579 21.196C48.6579 21.116 48.6739 21.02 48.7059 20.908C48.7379 20.796 48.7539 20.724 48.7539 20.692C48.7379 20.596 48.8019 20.332 48.9459 19.9C49.1379 19.468 49.3779 18.804 49.6659 17.908C49.9699 17.012 50.1779 16.372 50.2899 15.988C50.2899 15.908 50.3219 15.844 50.3859 15.796C50.4499 15.732 50.5459 15.692 50.6739 15.676C50.8499 15.612 51.0739 15.692 51.3459 15.916C51.6179 16.124 51.8419 16.364 52.0179 16.636C52.1139 16.732 52.1619 16.86 52.1619 17.02C52.1619 17.26 52.0579 17.596 51.8499 18.028C51.7699 18.204 51.6899 18.42 51.6099 18.676C51.5459 18.932 51.4899 19.172 51.4419 19.396C51.2499 19.828 51.0979 20.228 50.9859 20.596C50.9379 20.804 50.9059 20.964 50.8899 21.076C50.7779 21.668 50.6739 22.052 50.5779 22.228C50.4819 22.628 50.3459 22.932 50.1699 23.14C49.9939 23.332 49.7939 23.428 49.5699 23.428C49.2979 23.428 49.0659 23.316 48.8739 23.092ZM55.6008 22.996C55.4728 22.996 55.2888 22.964 55.0488 22.9C54.8248 22.836 54.6888 22.78 54.6408 22.732C54.5448 22.652 54.4488 22.532 54.3528 22.372C54.2568 22.196 54.2088 21.996 54.2088 21.772C54.2088 21.42 54.3368 21.052 54.5928 20.668C54.6888 20.476 54.9288 19.812 55.3128 18.676L55.7928 17.356C55.8248 17.084 55.8088 16.892 55.7448 16.78C55.6808 16.652 55.5448 16.58 55.3368 16.564C55.1608 16.564 55.0328 16.508 54.9528 16.396C54.8728 16.268 54.8328 16.068 54.8328 15.796C54.8808 15.332 55.0648 14.996 55.3848 14.788C55.6408 14.66 55.9928 14.596 56.4408 14.596C56.8408 14.596 57.1048 14.652 57.2328 14.764C57.3608 14.86 57.4728 15.076 57.5688 15.412C57.6648 15.748 57.7368 16.06 57.7848 16.348C57.8648 16.3 58.0728 16.084 58.4088 15.7L58.9368 15.148C59.2088 14.956 59.5208 14.772 59.8728 14.596C60.2248 14.42 60.4728 14.332 60.6168 14.332C60.7768 14.332 60.9848 14.412 61.2408 14.572C61.4968 14.732 61.6648 14.884 61.7448 15.028C61.9848 15.476 62.1048 15.844 62.1048 16.132C62.1048 16.356 62.0488 16.532 61.9368 16.66C61.5048 17.204 61.0248 17.476 60.4968 17.476C60.3688 17.476 60.2648 17.468 60.1848 17.452C60.1048 17.436 60.0088 17.324 59.8968 17.116C59.7848 16.908 59.7208 16.748 59.7048 16.636C59.7048 16.588 59.5848 16.684 59.3448 16.924C59.1208 17.148 58.9768 17.292 58.9128 17.356L58.5048 17.788C58.2488 18.092 57.9848 18.492 57.7128 18.988C57.4568 19.484 57.0728 20.236 56.5608 21.244L56.2488 21.988C56.0888 22.356 55.9688 22.62 55.8888 22.78C55.8088 22.924 55.7128 22.996 55.6008 22.996Z" fill="white"/>
</svg>
