<svg width="81" height="31" viewBox="0 0 81 31" fill="none" xmlns="http://www.w3.org/2000/svg">
<path d="M0 20.6667C0 9.25278 9.25278 0 20.6667 0H70.6667C76.3736 0 81 4.62639 81 10.3333V10.3333C81 21.7472 71.7472 31 60.3333 31H10.3333C4.62639 31 0 26.3736 0 20.6667V20.6667Z" fill="#DE6449"/>
<path d="M33.5 23.2305C33.5469 23.293 33.5703 23.3594 33.5703 23.4297C33.5703 23.5156 33.5391 23.5859 33.4766 23.6406C33.4219 23.7031 33.3516 23.7344 33.2656 23.7344C33.1797 23.7344 33.1055 23.7031 33.043 23.6406C32.9805 23.5859 32.9492 23.5156 32.9492 23.4297C32.9492 23.3594 32.9727 23.293 33.0195 23.2305V11.9805H28.9883V23.2305C29.0352 23.293 29.0586 23.3594 29.0586 23.4297C29.0586 23.5156 29.0273 23.5859 28.9648 23.6406C28.9023 23.7031 28.8281 23.7344 28.7422 23.7344C28.6562 23.7344 28.582 23.7031 28.5195 23.6406C28.4648 23.5859 28.4375 23.5156 28.4375 23.4297C28.4375 23.3594 28.4609 23.293 28.5078 23.2305V9.4375C28.5078 9.09375 28.5469 8.75781 28.625 8.42969C28.7031 8.10156 28.8398 7.80859 29.0352 7.55078C29.2305 7.29297 29.4883 7.08594 29.8086 6.92969C30.1367 6.77344 30.543 6.69531 31.0273 6.69531H33.5V23.2305ZM33.0195 11.5V7.17578H31.0273C30.6289 7.17578 30.2969 7.24219 30.0312 7.375C29.7734 7.50781 29.5664 7.68359 29.4102 7.90234C29.2539 8.11328 29.1445 8.35547 29.082 8.62891C29.0195 8.89453 28.9883 9.16406 28.9883 9.4375V11.5H33.0195ZM44.0642 23.2305C44.1111 23.293 44.1345 23.3594 44.1345 23.4297C44.1345 23.5156 44.1033 23.5859 44.0408 23.6406C43.9783 23.7031 43.9041 23.7344 43.8181 23.7344C43.7322 23.7344 43.658 23.7031 43.5955 23.6406C43.5408 23.5859 43.5134 23.5156 43.5134 23.4297C43.5134 23.3594 43.5369 23.293 43.5837 23.2305V13.7031C43.5837 13.4688 43.5564 13.2344 43.5017 13C43.447 12.7656 43.3533 12.5547 43.2205 12.3672C43.0877 12.1797 42.908 12.0273 42.6814 11.9102C42.4627 11.793 42.1853 11.7344 41.8494 11.7344C41.5291 11.7344 41.2595 11.7891 41.0408 11.8984C40.8298 12 40.658 12.1367 40.5252 12.3086C40.3923 12.4805 40.2947 12.6758 40.2322 12.8945C40.1697 13.1133 40.1345 13.3359 40.1267 13.5625V23.2305C40.1736 23.293 40.197 23.3594 40.197 23.4297C40.197 23.5156 40.1658 23.5859 40.1033 23.6406C40.0408 23.7031 39.9666 23.7344 39.8806 23.7344C39.7947 23.7344 39.7205 23.7031 39.658 23.6406C39.6033 23.5859 39.5759 23.5156 39.5759 23.4297C39.5759 23.3594 39.5994 23.293 39.6462 23.2305V13.7031C39.6462 13.4688 39.6189 13.2344 39.5642 13C39.5095 12.7656 39.4158 12.5547 39.283 12.3672C39.1502 12.1797 38.9705 12.0273 38.7439 11.9102C38.5252 11.793 38.2478 11.7344 37.9119 11.7344C37.5916 11.7344 37.3181 11.7891 37.0916 11.8984C36.8728 12 36.697 12.1367 36.5642 12.3086C36.4314 12.4805 36.3337 12.6758 36.2712 12.8945C36.2166 13.1133 36.1892 13.3359 36.1892 13.5625V23.2305C36.2361 23.293 36.2595 23.3594 36.2595 23.4297C36.2595 23.5156 36.2283 23.5859 36.1658 23.6406C36.1033 23.7031 36.0291 23.7344 35.9431 23.7344C35.8572 23.7344 35.783 23.7031 35.7205 23.6406C35.6658 23.5859 35.6384 23.5156 35.6384 23.4297C35.6384 23.3594 35.6619 23.293 35.7087 23.2305V11.793C35.6619 11.7148 35.6384 11.6406 35.6384 11.5703C35.6384 11.4844 35.6658 11.4141 35.7205 11.3594C35.783 11.2969 35.8572 11.2656 35.9431 11.2656C36.0291 11.2656 36.1033 11.2969 36.1658 11.3594C36.2283 11.4141 36.2595 11.4844 36.2595 11.5703C36.2595 11.6406 36.2361 11.7148 36.1892 11.793V12.1914C36.3845 11.8945 36.6189 11.668 36.8923 11.5117C37.1658 11.3477 37.5134 11.2656 37.9353 11.2656C38.4978 11.2656 38.9314 11.3828 39.2361 11.6172C39.5486 11.8516 39.7712 12.1484 39.9041 12.5078C40.0837 12.0781 40.3533 11.7656 40.7127 11.5703C41.0798 11.3672 41.4666 11.2656 41.8728 11.2656C42.2947 11.2656 42.6462 11.3359 42.9275 11.4766C43.2087 11.6172 43.4314 11.8008 43.5955 12.0273C43.7673 12.2539 43.8884 12.5117 43.9587 12.8008C44.0291 13.0898 44.0642 13.3828 44.0642 13.6797V23.2305ZM46.7183 23.2305C46.7652 23.293 46.7886 23.3594 46.7886 23.4297C46.7886 23.5156 46.7573 23.5859 46.6948 23.6406C46.6402 23.7031 46.5698 23.7344 46.4839 23.7344C46.398 23.7344 46.3237 23.7031 46.2612 23.6406C46.1987 23.5859 46.1675 23.5156 46.1675 23.4297C46.1675 23.3594 46.1909 23.293 46.2378 23.2305V11.793C46.1909 11.7148 46.1675 11.6406 46.1675 11.5703C46.1675 11.4844 46.1987 11.4141 46.2612 11.3594C46.3237 11.2969 46.398 11.2656 46.4839 11.2656C46.5698 11.2656 46.6402 11.2969 46.6948 11.3594C46.7573 11.4141 46.7886 11.4844 46.7886 11.5703C46.7886 11.6406 46.7652 11.7148 46.7183 11.793V23.2305ZM46.7183 8.61719C46.7652 8.66406 46.7886 8.72656 46.7886 8.80469C46.7886 8.89062 46.7573 8.96484 46.6948 9.02734C46.6402 9.08984 46.5698 9.12109 46.4839 9.12109C46.398 9.12109 46.3237 9.08984 46.2612 9.02734C46.1987 8.96484 46.1675 8.89062 46.1675 8.80469C46.1675 8.72656 46.1909 8.66406 46.2378 8.61719V7.92578C46.1909 7.84766 46.1675 7.77344 46.1675 7.70312C46.1675 7.61719 46.1987 7.54688 46.2612 7.49219C46.3237 7.42969 46.398 7.39844 46.4839 7.39844C46.5698 7.39844 46.6402 7.42969 46.6948 7.49219C46.7573 7.54688 46.7886 7.61719 46.7886 7.70312C46.7886 7.77344 46.7652 7.84766 46.7183 7.92578V8.61719ZM49.4192 23.2305C49.4661 23.293 49.4895 23.3594 49.4895 23.4297C49.4895 23.5156 49.4583 23.5859 49.3958 23.6406C49.3333 23.7031 49.2591 23.7344 49.1731 23.7344C49.0872 23.7344 49.013 23.7031 48.9505 23.6406C48.8958 23.5859 48.8684 23.5156 48.8684 23.4297C48.8684 23.3594 48.8919 23.293 48.9387 23.2305V11.793C48.8919 11.7148 48.8684 11.6406 48.8684 11.5703C48.8684 11.4844 48.8958 11.4141 48.9505 11.3594C49.013 11.2969 49.0872 11.2656 49.1731 11.2656C49.2591 11.2656 49.3333 11.2969 49.3958 11.3594C49.4583 11.4141 49.4895 11.4844 49.4895 11.5703C49.4895 11.6406 49.4661 11.7148 49.4192 11.793V12.625C49.638 12.25 49.9036 11.9688 50.2161 11.7812C50.5286 11.5938 50.927 11.5 51.4114 11.5H51.8216C51.8919 11.4531 51.9622 11.4297 52.0325 11.4297C52.1184 11.4297 52.1927 11.4609 52.2552 11.5234C52.3177 11.5781 52.3489 11.6484 52.3489 11.7344C52.3489 11.8203 52.3177 11.8945 52.2552 11.957C52.1927 12.0195 52.1184 12.0508 52.0325 12.0508C51.9622 12.0508 51.8919 12.0273 51.8216 11.9805H51.4114C51.0755 11.9805 50.7825 12.0469 50.5325 12.1797C50.2825 12.3125 50.0755 12.4883 49.9114 12.707C49.7473 12.9258 49.6223 13.1719 49.5364 13.4453C49.4583 13.7109 49.4192 13.9844 49.4192 14.2656V23.2305Z" fill="white"/>
</svg>
