<svg width="81" height="31" viewBox="0 0 81 31" fill="none" xmlns="http://www.w3.org/2000/svg">
<path d="M0 20.6667C0 9.25278 9.25278 0 20.6667 0H70.6667C76.3736 0 81 4.62639 81 10.3333V10.3333C81 21.7472 71.7472 31 60.3333 31H10.3333C4.62639 31 0 26.3736 0 20.6667V20.6667Z" fill="#F08080"/>
<path d="M16 20V12.5H17.5V11H19V9.5H23.5V11H25V12.5H26.5V20H23.5V17H19V20H16ZM19 15.5H23.5V12.5H22V11H20.5V12.5H19V15.5ZM28.12 20V12.5H37.12V14H38.62V20H35.62V14H34.12V20H31.12V14H29.62V20H28.12ZM44.74 11V9.5H47.74V11H44.74ZM41.74 20V18.5H44.74V14H43.24V12.5H47.74V18.5H50.74V20H41.74ZM56.86 14H58.36V15.5H56.86V20H53.86V12.5H56.86V14ZM62.86 12.5V14H58.36V12.5H62.86Z" fill="white"/>
</svg>
