<svg width="81" height="31" viewBox="0 0 81 31" fill="none" xmlns="http://www.w3.org/2000/svg">
<path d="M0 20.6667C0 9.25278 9.25278 0 20.6667 0H70.6667C76.3736 0 81 4.62639 81 10.3333V10.3333C81 21.7472 71.7472 31 60.3333 31H10.3333C4.62639 31 0 26.3736 0 20.6667V20.6667Z" fill="#3B8EA5"/>
<path d="M18.504 25.824C17.736 25.6 17.2 25.376 16.896 25.152C16.608 24.928 16.464 24.648 16.464 24.312C16.464 24.056 16.536 23.696 16.68 23.232C16.824 22.768 17.032 22.224 17.304 21.6C17.592 20.96 17.928 20.256 18.312 19.488C18.712 18.72 19.16 17.896 19.656 17.016C19.24 17 18.864 16.992 18.528 16.992C18.208 16.976 17.944 16.968 17.736 16.968C17.832 16.728 18.104 16.52 18.552 16.344C19 16.168 19.592 16.016 20.328 15.888C20.952 14.848 21.616 13.856 22.32 12.912C23.04 11.968 23.76 11.104 24.48 10.32C25.2 9.52 25.92 8.824 26.64 8.232C27.36 7.624 28.048 7.144 28.704 6.792C28.72 6.68 28.728 6.584 28.728 6.504C28.744 6.424 28.752 6.368 28.752 6.336C28.976 6.336 29.272 6.392 29.64 6.504C30.024 6.616 30.392 6.752 30.744 6.912C31.112 7.072 31.432 7.24 31.704 7.416C31.992 7.576 32.152 7.712 32.184 7.824C31.656 8.752 31.136 10.144 30.624 12C30.112 13.84 29.688 16.048 29.352 18.624C29.272 19.264 29.2 19.992 29.136 20.808C29.088 21.624 29.064 22.536 29.064 23.544C29.064 23.896 29.064 24.256 29.064 24.624C29.064 24.992 29.08 25.376 29.112 25.776C29.08 25.792 29.048 25.8 29.016 25.8C28.984 25.8 28.92 25.8 28.824 25.8C28.6 25.8 28.336 25.76 28.032 25.68C27.744 25.616 27.456 25.528 27.168 25.416C26.896 25.32 26.656 25.208 26.448 25.08C26.256 24.952 26.136 24.84 26.088 24.744C26.072 24.536 26.064 24.328 26.064 24.12C26.064 23.928 26.064 23.72 26.064 23.496C26.064 22.504 26.096 21.496 26.16 20.472C26.24 19.448 26.368 18.392 26.544 17.304C26.32 17.288 26.024 17.272 25.656 17.256C25.288 17.224 24.872 17.2 24.408 17.184C23.96 17.168 23.472 17.152 22.944 17.136C22.432 17.104 21.928 17.08 21.432 17.064C21.048 17.784 20.688 18.504 20.352 19.224C20.016 19.928 19.728 20.64 19.488 21.36C19.216 22.128 18.992 22.896 18.816 23.664C18.656 24.432 18.552 25.152 18.504 25.824ZM27.768 11.4C27.832 11.176 27.904 10.872 27.984 10.488C28.08 10.088 28.168 9.672 28.248 9.24C27.848 9.384 27.4 9.648 26.904 10.032C26.424 10.416 25.92 10.896 25.392 11.472C24.88 12.032 24.352 12.672 23.808 13.392C23.28 14.096 22.768 14.848 22.272 15.648C23.616 15.536 25.144 15.464 26.856 15.432C26.984 14.76 27.12 14.096 27.264 13.44C27.424 12.768 27.592 12.088 27.768 11.4ZM46.8384 16.632C46.5824 16.648 46.2704 16.816 45.9024 17.136C45.5344 17.44 45.1344 17.84 44.7024 18.336C44.2864 18.816 43.8464 19.352 43.3824 19.944C42.9344 20.536 42.4944 21.128 42.0624 21.72C41.6464 22.296 41.2544 22.84 40.8864 23.352C40.5184 23.864 40.2064 24.272 39.9504 24.576C39.5984 24.432 39.2944 24.224 39.0384 23.952C38.7824 23.664 38.5984 23.312 38.4864 22.896C38.5664 22.4 38.6784 21.888 38.8224 21.36C38.9664 20.816 39.1504 20.256 39.3744 19.68C39.6144 19.104 39.9024 18.504 40.2384 17.88C40.5904 17.24 41.0144 16.568 41.5104 15.864C41.2704 15.88 40.9424 16.056 40.5264 16.392C40.1104 16.712 39.6624 17.136 39.1824 17.664C38.7024 18.176 38.2064 18.76 37.6944 19.416C37.1824 20.056 36.7024 20.688 36.2544 21.312C35.6624 22.144 35.1664 22.872 34.7664 23.496C34.3824 24.12 34.1024 24.488 33.9264 24.6C33.5104 24.296 33.2224 23.968 33.0624 23.616C32.9024 23.264 32.7824 22.872 32.7024 22.44C32.7184 22.056 32.7744 21.576 32.8704 21C32.9824 20.424 33.1344 19.832 33.3264 19.224C33.6944 18.056 34.1664 16.896 34.7424 15.744C35.3344 14.592 35.9024 13.536 36.4464 12.576C36.8944 12.672 37.2944 12.824 37.6464 13.032C38.0144 13.24 38.3984 13.544 38.7984 13.944C38.6384 14.44 38.3904 14.968 38.0544 15.528C37.7184 16.072 37.3664 16.648 36.9984 17.256C36.6304 17.864 36.2944 18.488 35.9904 19.128C35.6864 19.768 35.4864 20.416 35.3904 21.072C35.8384 20.432 36.3664 19.696 36.9744 18.864C37.5984 18.032 38.2304 17.248 38.8704 16.512C39.5264 15.776 40.1744 15.152 40.8144 14.64C41.4544 14.128 42.0304 13.872 42.5424 13.872C42.7344 13.872 42.9424 13.904 43.1664 13.968C43.3904 14.032 43.5984 14.112 43.7904 14.208C43.9824 14.304 44.1424 14.4 44.2704 14.496C44.3984 14.576 44.4704 14.64 44.4864 14.688C44.4064 15.008 44.2144 15.448 43.9104 16.008C43.6224 16.552 43.3104 17.128 42.9744 17.736C42.6384 18.344 42.3264 18.936 42.0384 19.512C41.7504 20.072 41.5824 20.52 41.5344 20.856C42.3184 19.784 43.0544 18.816 43.7424 17.952C44.4304 17.072 45.0784 16.32 45.6864 15.696C46.2944 15.072 46.8544 14.592 47.3664 14.256C47.8944 13.92 48.3904 13.752 48.8544 13.752C49.1744 13.752 49.4704 13.84 49.7424 14.016C50.0304 14.176 50.2304 14.416 50.3424 14.736C50.1984 15.216 49.9584 15.792 49.6224 16.464C49.3024 17.136 48.9744 17.848 48.6384 18.6C48.3024 19.336 47.9984 20.064 47.7264 20.784C47.4704 21.504 47.3424 22.152 47.3424 22.728C47.3424 23.064 47.3904 23.288 47.4864 23.4C47.5824 23.496 47.7184 23.544 47.8944 23.544C48.0864 23.544 48.2624 23.512 48.4224 23.448C48.5984 23.368 48.7264 23.328 48.8064 23.328C48.9024 23.392 48.9584 23.472 48.9744 23.568C48.9904 23.664 48.9984 23.752 48.9984 23.832C48.6784 24.088 48.3504 24.296 48.0144 24.456C47.6784 24.632 47.3024 24.72 46.8864 24.72C46.5024 24.72 46.1824 24.656 45.9264 24.528C45.6864 24.4 45.4864 24.224 45.3264 24C45.1664 23.776 45.0544 23.52 44.9904 23.232C44.9264 22.944 44.8944 22.632 44.8944 22.296C44.8944 21.752 44.9664 21.216 45.1104 20.688C45.2544 20.144 45.4224 19.632 45.6144 19.152C45.8224 18.656 46.0384 18.2 46.2624 17.784C46.4864 17.352 46.6784 16.968 46.8384 16.632ZM51.582 22.392C51.582 22.248 51.59 22.072 51.606 21.864C51.638 21.64 51.686 21.352 51.75 21C51.814 20.632 51.894 20.192 51.99 19.68C52.102 19.168 52.238 18.552 52.398 17.832C52.43 17.672 52.502 17.416 52.614 17.064C52.726 16.712 52.87 16.344 53.046 15.96C53.238 15.56 53.462 15.176 53.718 14.808C53.99 14.44 54.31 14.168 54.678 13.992C54.95 14.056 55.31 14.224 55.758 14.496C56.206 14.752 56.59 15.112 56.91 15.576C56.542 15.992 56.23 16.408 55.974 16.824C55.734 17.24 55.51 17.672 55.302 18.12C55.11 18.568 54.926 19.032 54.75 19.512C54.59 19.992 54.406 20.496 54.198 21.024C54.022 21.472 53.862 21.936 53.718 22.416C53.574 22.88 53.494 23.288 53.478 23.64C53.478 23.928 53.47 24.128 53.454 24.24C53.454 24.368 53.414 24.432 53.334 24.432C53.27 24.432 53.142 24.392 52.95 24.312C52.758 24.232 52.558 24.112 52.35 23.952C52.158 23.776 51.982 23.56 51.822 23.304C51.662 23.048 51.582 22.744 51.582 22.392ZM56.166 11.976C56.166 11.88 56.19 11.736 56.238 11.544C56.158 11.464 56.086 11.344 56.022 11.184C55.974 11.024 55.95 10.88 55.95 10.752C55.95 10.608 55.966 10.416 55.998 10.176C56.046 9.92 56.102 9.648 56.166 9.36C56.23 9.072 56.31 8.776 56.406 8.472C56.502 8.152 56.598 7.864 56.694 7.608C56.886 7.608 57.118 7.664 57.39 7.776C57.678 7.872 57.966 8.008 58.254 8.184C58.542 8.344 58.806 8.528 59.046 8.736C59.286 8.928 59.47 9.112 59.598 9.288C59.422 9.464 59.19 9.712 58.902 10.032C58.614 10.336 58.334 10.664 58.062 11.016C57.79 11.352 57.542 11.672 57.318 11.976C57.094 12.28 56.95 12.496 56.886 12.624C56.694 12.592 56.526 12.512 56.382 12.384C56.238 12.24 56.166 12.104 56.166 11.976ZM56.8939 23.52C56.9739 23.056 57.1099 22.448 57.3019 21.696C57.5099 20.928 57.7499 20.12 58.0219 19.272C58.2939 18.408 58.5819 17.544 58.8859 16.68C59.1899 15.816 59.4859 15.04 59.7739 14.352C59.9819 13.856 60.1659 13.472 60.3259 13.2C60.4859 12.912 60.6619 12.672 60.8539 12.48C61.0779 12.512 61.3099 12.568 61.5499 12.648C61.7899 12.728 62.0219 12.824 62.2459 12.936C62.4699 13.048 62.6699 13.168 62.8459 13.296C63.0219 13.408 63.1579 13.52 63.2539 13.632C62.8219 14.144 62.4379 14.728 62.1019 15.384C61.7819 16.04 61.4539 16.88 61.1179 17.904C61.9819 17.136 62.7419 16.4 63.3979 15.696C64.0699 14.992 64.6939 14.208 65.2699 13.344C65.3659 13.264 65.5339 13.224 65.7739 13.224C65.9979 13.224 66.2139 13.264 66.4219 13.344C66.6299 13.408 66.7739 13.504 66.8539 13.632C66.5659 14.4 66.4219 15.16 66.4219 15.912C66.4219 16.616 66.5259 17.144 66.7339 17.496C66.7179 17.592 66.6059 17.776 66.3979 18.048C66.2059 18.32 65.9899 18.576 65.7499 18.816C65.3179 18.592 64.9339 18.288 64.5979 17.904C64.2619 17.504 64.0139 17.072 63.8539 16.608C63.1019 17.136 62.4619 17.656 61.9339 18.168C61.4059 18.664 60.9499 19.224 60.5659 19.848C60.1979 20.456 59.8779 21.16 59.6059 21.96C59.3499 22.76 59.1019 23.712 58.8619 24.816C58.7179 24.8 58.5419 24.744 58.3339 24.648C58.1419 24.568 57.9419 24.464 57.7339 24.336C57.5419 24.208 57.3659 24.072 57.2059 23.928C57.0459 23.784 56.9419 23.648 56.8939 23.52Z" fill="white"/>
</svg>
