<svg width="81" height="31" viewBox="0 0 81 31" fill="none" xmlns="http://www.w3.org/2000/svg">
<path d="M0 20.6667C0 9.25278 9.25278 0 20.6667 0H70.6667C76.3736 0 81 4.62639 81 10.3333V10.3333C81 21.7472 71.7472 31 60.3333 31H10.3333C4.62639 31 0 26.3736 0 20.6667V20.6667Z" fill="#96E8BC"/>
<path d="M20.2266 25.7305C19.7891 25.7305 19.4062 25.7109 19.0781 25.6719C18.75 25.6328 18.4414 25.5391 18.1523 25.3906C17.3945 25.0234 17.0156 24.2891 17.0156 23.1875C17.0156 22.6562 17.0977 22.0195 17.2617 21.2773C17.4336 20.5352 17.6758 19.7344 17.9883 18.875C18.6758 16.9844 19.5273 15.168 20.543 13.4258C19.7461 13.4727 19.1133 13.5938 18.6445 13.7891C18.1836 13.9766 17.8789 14.2695 17.7305 14.668C17.8008 14.668 17.8711 14.75 17.9414 14.9141C18.0117 15.0781 18.0469 15.2461 18.0469 15.418C18.0469 15.6992 17.918 15.9258 17.6602 16.0977C17.4023 16.2695 17.082 16.3555 16.6992 16.3555C16.2695 16.3555 15.918 16.2383 15.6445 16.0039C15.3555 15.7617 15.2109 15.4141 15.2109 14.9609C15.2109 14.5625 15.332 14.1836 15.5742 13.8242C15.8164 13.457 16.1602 13.1406 16.6055 12.875C17.0586 12.6016 17.582 12.3906 18.1758 12.2422C18.7773 12.0859 19.4219 12.0078 20.1094 12.0078C20.4453 12.0078 20.8633 12.0312 21.3633 12.0781C22.707 9.96094 24.0508 8.30078 25.3945 7.09766C26.957 5.69922 28.3945 5 29.707 5C30.4883 5 31.1211 5.11328 31.6055 5.33984L27.8438 23H24.3867L26.2266 14.293C25.6484 14.0273 25.1055 13.8281 24.5977 13.6953C24.0977 13.5625 23.5703 13.4727 23.0156 13.4258C22.1094 15.3867 21.3672 17.3906 20.7891 19.4375C20.1953 21.4922 19.8984 23.1445 19.8984 24.3945C19.8984 25.0117 20.0078 25.457 20.2266 25.7305ZM27.8438 6.69922C27.1484 7.07422 26.418 7.78125 25.6523 8.82031C24.9023 9.85156 24.1914 11.043 23.5195 12.3945C24.6133 12.6055 25.5898 12.8828 26.4492 13.2266L27.8438 6.69922ZM45.8611 23.1406C44.8689 23.1406 44.1345 22.8594 43.658 22.2969C43.2439 21.8125 43.0369 21.1914 43.0369 20.4336C43.0369 20.0742 43.0798 19.6562 43.1658 19.1797C43.2595 18.7031 43.3962 18.0898 43.5759 17.3398C43.7556 16.5742 43.8884 15.9648 43.9744 15.5117C44.0681 15.0508 44.115 14.6523 44.115 14.3164C44.115 13.4961 43.8259 13.0859 43.2478 13.0859C42.8416 13.0859 42.4666 13.3008 42.1228 13.7305C41.8337 14.0977 41.5837 14.6211 41.3728 15.3008L39.7439 23H36.2869L38.0447 14.7148C38.0916 14.5273 38.115 14.3281 38.115 14.1172C38.115 13.7969 38.0642 13.5508 37.9627 13.3789C37.8298 13.168 37.6384 13.0625 37.3884 13.0625C36.9353 13.0625 36.5408 13.2812 36.2048 13.7188C35.908 14.0938 35.6541 14.6211 35.4431 15.3008L33.8142 23H30.3572L32.9002 11H36.3572L36.0994 12.2422C36.5681 11.7188 37.0798 11.3477 37.6345 11.1289C38.072 10.9648 38.5369 10.8828 39.0291 10.8828C39.7009 10.8828 40.2361 11.0391 40.6345 11.3516C41.0798 11.7031 41.365 12.2344 41.49 12.9453C42.0056 12.1484 42.5994 11.5859 43.2712 11.2578C43.7478 11.0234 44.2673 10.9062 44.8298 10.9062C45.6345 10.9062 46.2712 11.1172 46.74 11.5391C47.24 12 47.49 12.6914 47.49 13.6133C47.49 14.1367 47.3923 14.8594 47.197 15.7812C47.1189 16.1641 47.0252 16.5508 46.9158 16.9414C46.7205 17.6914 46.5603 18.3828 46.4353 19.0156C46.3728 19.3438 46.3416 19.6094 46.3416 19.8125C46.3416 20.1328 46.4119 20.3828 46.5525 20.5625C46.7009 20.7344 46.9509 20.8203 47.3025 20.8203C47.7791 20.8203 48.1814 20.625 48.5095 20.2344C48.7595 19.9375 49.0291 19.4258 49.3181 18.6992H50.3259C49.7322 20.457 48.9822 21.6875 48.0759 22.3906C47.4353 22.8906 46.697 23.1406 45.8611 23.1406ZM53.5659 9.69922C53.3081 9.69922 53.062 9.65234 52.8277 9.55859C52.5933 9.45703 52.3902 9.32031 52.2183 9.14844C52.0464 8.98438 51.9097 8.78516 51.8081 8.55078C51.7144 8.31641 51.6675 8.07031 51.6675 7.8125C51.6675 7.55469 51.7144 7.30859 51.8081 7.07422C51.9097 6.83984 52.0464 6.63281 52.2183 6.45312C52.3902 6.27344 52.5933 6.13672 52.8277 6.04297C53.062 5.94141 53.3081 5.89062 53.5659 5.89062C53.8237 5.89062 54.0698 5.94141 54.3042 6.04297C54.5386 6.13672 54.7456 6.27344 54.9253 6.45312C55.105 6.63281 55.2417 6.83984 55.3355 7.07422C55.437 7.30859 55.4878 7.55469 55.4878 7.8125C55.4878 8.07031 55.437 8.31641 55.3355 8.55078C55.2417 8.78516 55.105 8.98438 54.9253 9.14844C54.7456 9.32031 54.5386 9.45703 54.3042 9.55859C54.0698 9.65234 53.8237 9.69922 53.5659 9.69922ZM51.937 23.1406C51.1714 23.1406 50.5659 22.9141 50.1206 22.4609C49.6206 21.9609 49.3706 21.2305 49.3706 20.2695C49.3706 19.8164 49.4331 19.293 49.5581 18.6992L51.187 11H54.6441L52.9214 19.1562C52.8589 19.3594 52.8277 19.6172 52.8277 19.9297C52.8277 20.2578 52.9019 20.4883 53.0503 20.6211C53.2066 20.7539 53.4566 20.8203 53.8003 20.8203C54.0347 20.8203 54.2612 20.7695 54.48 20.668C54.7066 20.5586 54.9136 20.4102 55.1011 20.2227C55.4839 19.8398 55.773 19.332 55.9683 18.6992H56.9761C56.5464 19.9102 56.0073 20.875 55.3589 21.5938C54.812 22.1797 54.1948 22.6016 53.5073 22.8594C53.0073 23.0469 52.4839 23.1406 51.937 23.1406ZM57.8489 11H61.3059L61.0013 12.4883C61.5481 12.0039 61.9934 11.6602 62.3372 11.457C62.8684 11.1523 63.388 11 63.8958 11C64.4114 11 64.8255 11.1836 65.138 11.5508C65.2786 11.7148 65.3841 11.9062 65.4544 12.125C65.5247 12.3359 65.5598 12.5625 65.5598 12.8047C65.5598 13.0234 65.5247 13.2344 65.4544 13.4375C65.3841 13.6406 65.2786 13.8242 65.138 13.9883C64.9817 14.1602 64.7903 14.2969 64.5638 14.3984C64.345 14.5 64.0989 14.5508 63.8255 14.5508C63.6145 14.5508 63.4466 14.5156 63.3216 14.4453C63.1966 14.375 63.0989 14.2734 63.0286 14.1406C62.9661 14.0078 62.9231 13.8789 62.8997 13.7539C62.8294 13.418 62.7591 13.1953 62.6888 13.0859C62.6341 13.0078 62.5481 12.9688 62.4309 12.9688C62.095 12.9688 61.8098 13.0391 61.5755 13.1797C61.3411 13.3203 61.0442 13.5547 60.6848 13.8828L58.763 23H55.3059L57.8489 11Z" fill="white"/>
</svg>
